<svg version="1.2" xmlns="http://www.w3.org/2000/svg" viewBox="0 0 1563 1563" width="1563" height="1563">
	<style>
		.s0 { fill: #010000 } 
		.s1 { fill: #fffefe } 
	</style>
	<g id="Background">
		
		<path id="Path 1" class="s1" d="m1010 794.74c2.48 0.2 6.75 0.2 9.5 0 2.75-0.21 0.73-0.38-4.5-0.38-5.23 0-7.48 0.17-5 0.38z"/>
		<path id="Path 2" class="s1" d="m1027 780.72c-1.92 0.22-6.42 1.29-10 2.39-5.11 1.56-8.11 1.85-14 1.39-4.13-0.33-8.85-0.2-10.5 0.27-2.47 0.71-3.06 1.47-3.35 4.3l-0.35 3.43c7.52-1.25 15.32-2.55 22.2-3.69 6.88-1.14 13.74-2.02 15.25-1.94 1.51 0.07 3.5-0.66 4.42-1.62 1.56-1.64 1.51-1.79-0.75-2.4-2.37-0.64-2.36-0.65 0.33-0.75 1.51-0.06 2.75-0.55 2.75-1.1 0-0.55-0.56-0.93-1.25-0.84-0.69 0.09-2.83 0.34-4.75 0.56z"/>
		<path id="Path 3" class="s1" d="m1185 791c0 8 0.38 13 1 13 0.55 0 0.98-0.56 0.96-1.25-0.03-0.69 0.69-1.92 1.59-2.75 0.91-0.83 2.31-2.85 3.11-4.5 1.36-2.8 1.26-3.48-1.59-10.25-1.67-3.99-3.5-7.25-4.05-7.25-0.64 0-1.02 4.87-1.02 13z"/>
		<path id="Path 4" class="s1" d="m950.71 776.91c-0.39 0.6 0.02 2.55 0.9 4.34 0.89 1.79 2.8 4.53 4.25 6.09 1.45 1.56 3.43 3.24 4.39 3.75 0.96 0.5 1.77 0.57 1.78 0.16 0.02-0.41-1.89-2.98-4.25-5.7-2.35-2.72-4.38-5.64-4.51-6.5-0.13-0.85-0.6-1.93-1.04-2.39-0.44-0.46-1.13-0.35-1.52 0.25z"/>
		<path id="Path 5" class="s1" d="m1044.25 769.06c-1.24 0.52-2.88 0.69-3.65 0.38-0.77-0.3-2 0.07-2.75 0.83-0.74 0.76-1.91 1.24-2.6 1.06-0.69-0.18-1.81 0.12-2.5 0.67-0.69 0.56-1.92 0.75-2.75 0.43-0.83-0.31-2.29 0.13-3.25 1-1.04 0.93-1.95 1.16-2.25 0.57-0.28-0.55-0.95-1-1.5-1-0.55 0-0.66 0.55-0.25 1.23 0.53 0.87 0.24 1.02-1 0.5-0.99-0.41-1.75-0.29-1.75 0.27 0 0.55-0.9 0.78-2 0.5-1.1-0.27-2.23-0.05-2.5 0.5-0.27 0.55-1.51 0.79-2.75 0.54-1.24-0.25-2.92-0.07-3.75 0.41-0.94 0.55-1.22 1.47-0.75 2.46 0.68 1.45 1.12 1.45 5-0.02 2.34-0.89 5.6-1.81 7.25-2.04 1.65-0.23 3.79-0.52 4.75-0.63 0.96-0.12 1.75-0.56 1.75-0.97 0-0.41 0.79-0.42 1.75-0.02 1.24 0.52 1.53 0.37 1-0.5-0.51-0.83-0.03-1.21 1.5-1.18 1.24 0.03 3.6-0.18 5.25-0.47 1.65-0.28 4.35-0.75 6-1.04 1.65-0.29 3.58-1.09 4.29-1.78 0.72-0.69 1.28-1.6 1.25-2.01-0.02-0.41-0.38-0.72-0.79-0.69-0.41 0.04-1.76 0.49-3 1z"/>
		<path id="Path 6" class="s1" d="m454 765c0 0.55 1.26 1.79 2.8 2.75 1.54 0.96 5.82 5.24 9.5 9.5 6.4 7.4 6.79 8.16 8.7 16.75 1.1 4.95 2 10.13 2 11.5 0 2 0.5 2.5 2.5 2.5 2.22 0 2.56 0.5 3 4.5 0.35 3.11 0.96 4.5 2 4.5 1.17 0 1.28-0.44 0.5-2-0.55-1.1-0.95-5.04-0.89-8.75 0.05-3.71-0.17-8.66-0.5-11-0.49-3.38-0.3-4.25 0.89-4.25 0.82 0 1.5 0.45 1.5 1 0 0.55 1.46 1.25 3.25 1.56 2.36 0.41 3.72 0.06 4.98-1.25 0.95-1 1.97-3.72 2.25-6.06 0.33-2.67 1.17-4.57 2.27-5.12 0.96-0.48 2.09-1.83 2.5-3 0.51-1.46 0.24-2.52-0.86-3.38-1.33-1.04-1.85-0.91-3.02 0.75-0.77 1.1-1.4 2.34-1.39 2.75 0.01 0.41-0.66 0.75-1.48 0.75-0.82 0-1.73-0.67-2-1.5-0.27-0.83-1.4-1.5-2.5-1.5-1.1 0-4.81-0.69-8.25-1.53-3.44-0.85-7.04-1.97-8-2.5-0.96-0.53-1.72-0.63-1.69-0.22 0.03 0.41 2.79 2.55 6.14 4.75 3.35 2.2 6.25 4.56 6.45 5.25 0.19 0.69-0.33 1.25-1.15 1.25-0.82 0-3.78-1.69-6.58-3.75-2.79-2.06-6.73-5.13-8.75-6.82-2.02-1.69-5.24-3.65-7.17-4.36-1.92-0.71-3.94-1.93-4.5-2.72-0.55-0.79-1.34-1.42-1.75-1.39-0.41 0.02-0.75 0.49-0.75 1.04z"/>
		<path id="Path 7" class="s1" d="m949.68 764.95c-0.37 1.13-0.12 3.09 0.57 4.36 0.69 1.27 4.63 7.31 8.75 13.41 5.8 8.6 8.12 11.24 10.25 11.69 1.85 0.4 4.06-0.14 6.79-1.66l4.04-2.25c-3.55-3.53-4.92-4.54-5.33-4.53-0.41 0.02-0.07 1.15 0.75 2.53 0.83 1.37 1.05 2.27 0.5 2-0.55-0.28-3.43-3.76-6.41-7.75-2.97-3.99-7.81-9.5-10.75-12.25-2.94-2.75-6.05-5.59-6.91-6.3-1.33-1.11-1.68-0.99-2.25 0.75z"/>
		<path id="Path 8" class="s0" d="m331.84 764.76c0.91 2.9 2 5.26 2.41 5.25 0.41 0 0.71-0.8 0.65-1.76-0.05-0.96-0.46-2.87-0.9-4.25-0.44-1.37-0.84-2.05-0.88-1.5-0.05 0.55-0.73 0.1-1.52-1-1.11-1.56-1.06-0.83 0.24 3.26z"/>
		<path id="Path 9" class="s1" d="m1031.75 757.14c-4.26 0.47-7.75 1.31-7.75 1.86 0 0.55-1.01 0.74-2.25 0.41-1.79-0.46-1.94-0.36-0.75 0.49q1.53 1.08 0.25 1.08c-0.69 0.01-2.15-0.43-3.25-0.98q-2-1-2 0c0 0.57-0.96 0.71-2.25 0.32-1.32-0.41-1.99-0.3-1.61 0.25 0.37 0.54-1.08 0.79-3.5 0.59-2.28-0.18-5.38 0.16-6.89 0.75-1.86 0.74-2.75 1.81-2.75 3.34 0 1.92 0.49 2.22 3.25 2.03 1.79-0.11 6.4-0.45 10.25-0.75 3.85-0.29 10.6-0.99 15-1.55 4.4-0.56 9.69-1.23 11.75-1.5 3.46-0.44 3.77-0.75 4-3.97 0.21-2.95-0.06-3.48-1.75-3.36-1.1 0.07-5.49 0.52-9.75 0.99z"/>
		<path id="Path 10" class="s1" d="m953.6 755.64c-0.88 1.3-1.61 2.92-1.61 3.61-0.01 0.69 7.07 8.05 15.75 16.36l15.76 15.11c1.86-7.14 2.99-9.55 3.7-9.95 0.72-0.41 2.76-0.75 4.55-0.75 1.79-0.01 3.25-0.36 3.24-0.77 0-0.41-5.49-4.35-12.18-8.75-6.7-4.4-12.88-8.39-13.75-8.87-0.86-0.48 2.04 2.86 6.44 7.42 4.4 4.56 6.35 6.98 4.33 5.37-2.01-1.6-8.38-7.02-14.14-12.03l-10.48-9.12z"/>
		<path id="Path 11" class="s1" d="m959.87 749.86l-2.37 1.86q5.82 3.49 9.74 5.88c2.61 1.6 11.84 7.52 20.5 13.17l15.76 10.28c1.16-4.69 2.06-6.36 2.75-6.75 0.69-0.38 3.73-1.24 6.75-1.9 3.02-0.66 4.37-1.23 3-1.28-1.38-0.04-6.33 0.56-11 1.34-7.79 1.31-8.68 1.29-10.67-0.27-1.19-0.93-6.08-5.07-10.86-9.19-4.78-4.13-11-9.17-13.83-11.2-2.83-2.04-5.65-3.72-6.27-3.75-0.62-0.03-2.19 0.79-3.5 1.81z"/>
		<path id="Path 12" class="s1" d="m959.25 729.57c-2.89 0.78-7.16 2.4-9.5 3.59-2.34 1.18-6.87 4.67-10.08 7.75-3.63 3.48-6.91 7.86-8.69 11.59-1.57 3.3-3.33 9.04-3.92 12.75-0.72 4.62-0.74 8.73-0.06 13 0.55 3.44 2.35 9.06 4 12.5 1.74 3.62 5.32 8.57 8.5 11.75 3.33 3.33 8.16 6.78 12.25 8.75l6.75 3.25 84.5 0.5v-17l-77.5-0.5c-7.55-3.88-11.12-6.58-12.8-8.5-1.68-1.93-4.14-5.98-5.48-9-1.88-4.25-2.32-6.64-1.95-10.5 0.26-2.75 1.35-7.03 2.42-9.5 1.06-2.48 3.52-6.3 5.47-8.5 1.95-2.2 5.97-5.13 8.94-6.5l5.4-2.5c66.23 0 71.01 0.2 71.26 1.5 0.26 1.31-3.7 1.47-31.48 1.27-17.48-0.12-33.8 0.05-36.28 0.39-4.36 0.59-4.43 0.66-2.44 2.23 1.13 0.88 4.28 3.48 7 5.76 2.72 2.29 7.98 6.68 11.69 9.75 3.71 3.08 6.98 5.6 7.25 5.6 0.27 0 0.5-1.24 0.5-2.75 0.01-1.51 1.02-3.95 2.25-5.42 2.14-2.53 3.29-2.8 22.75-5.32 11.28-1.46 21.85-2.98 23.5-3.37l3-0.71c-6.81-4.28-6.86-4.4-4.5-4.4 1.52 0.01 3.72-1.27 5.62-3.26 1.72-1.8 3.41-4.51 3.75-6.02l0.63-2.75c-16.33 0-18-0.28-18-1.5 0-0.83 1.24-2.42 2.75-3.53l2.75-2.04c-66.71 0.18-76.16 0.52-80.25 1.64z"/>
		<path id="Path 13" class="s1" d="m1276.99 759.25c0 24.89 0.34 48.07 0.75 51.51l0.76 6.26c5.42-0.03 9.37-0.37 12.26-0.78l5.27-0.74c-0.02-64.33-0.36-87.17-0.78-92.26l-0.75-9.25-17.5 0.01z"/>
		<path id="Path 14" class="s1" d="m545.5 708.74l-3 0.43c1.15 32.03 1.82 54.94 2.24 71.58l0.76 30.26c8.52-0.03 12.75-0.36 14.88-0.77l3.89-0.74c-0.97-31.77-1.46-54.61-1.71-71.25l-0.47-30.25c-10.53 0.23-14.94 0.5-16.59 0.74z"/>
		<path id="Path 15" class="s1" d="m1191 698.84c-3.03 0.96-7.53 2.9-10 4.33-2.47 1.42-7.2 5.46-10.5 8.98-3.3 3.51-7.65 9.53-9.66 13.37-2.01 3.84-4.38 9.45-5.26 12.48-0.88 3.02-2.02 9.1-2.54 13.5-0.6 5.06-0.6 11.21 0 16.75 0.53 4.81 2.18 12.46 3.68 17 1.51 4.59 4.79 11.36 7.38 15.25 2.56 3.85 6.4 8.55 8.53 10.45l3.87 3.44c1.1-13.09 1.77-24.47 2.21-33.73l0.79-16.85c4.65-3.72 6.34-4.8 6.75-4.81 0.41 0 0.76-1.01 0.78-2.25 0.01-1.24-0.32-2.62-0.75-3.08-0.43-0.46-0.93-4.51-1.11-9-0.18-4.49-0.29-9.52-0.25-11.17 0.04-1.7 1.04-3.97 2.32-5.26 1.24-1.24 3.92-2.59 5.94-3 3.39-0.68 3.98-0.43 7.25 3.01l3.57 3.75c0.03-5.81-0.59-8.4-1.36-9.5-0.76-1.1-1.22-2.79-1.01-3.75 0.27-1.29-0.96-2.35-4.65-4-2.76-1.24-5.01-2.59-5-3 0.01-0.41 0.92-0.75 2.02-0.75 1.1 0 1.95-0.56 1.88-1.25-0.06-0.69-0.04-1.92 0.06-2.75 0.11-0.88 0.6-0.47 1.18 1l1 2.5c2.62-4.27 3.6-5.52 3.88-5.54 0.28-0.01 2.26 3.48 4.42 7.76 2.15 4.28 4.24 9.13 4.63 10.78 0.39 1.65 0.33 6.6-0.14 11-0.46 4.4-1.48 10.47-2.25 13.5-0.97 3.82-1.11 6.26-0.44 8 0.53 1.37 2.1 3.85 3.49 5.5 1.4 1.65 3.38 4.69 4.41 6.75q1.88 3.75 5.63 5.39c2.06 0.9 4.65 1.99 5.75 2.43 1.1 0.43 2.62 0.93 3.39 1.11 0.84 0.19-0.14 1.45-2.5 3.22-2.14 1.59-5.34 4.51-7.1 6.5-1.77 1.98-3.22 4.27-3.22 5.1 0 0.83 0.66 2.4 1.48 3.5 0.82 1.1 1.48 2.56 1.47 3.25-0.01 0.69 1.65 4.06 3.69 7.5 2.04 3.44 3.88 6.47 4.09 6.75 0.22 0.27 2.9-2.2 5.97-5.5 3.45-3.71 7.03-9.05 9.38-14 2.1-4.4 4.6-10.92 5.57-14.5 1.3-4.77 1.74-9.96 1.67-19.5-0.08-10.7-0.53-14.42-2.52-21-1.33-4.4-4.17-11.15-6.31-15-2.14-3.85-6.64-9.7-10-13-3.36-3.3-8.57-7.2-11.58-8.67-3.02-1.48-7.51-3.15-9.98-3.73-2.47-0.58-6.75-1.04-9.5-1.02-2.75 0.01-7.47 0.81-10.5 1.76z"/>
		<path id="Path 16" class="s0" d="m1006.4 689.15c-1.89 2.13-1.89 2.13 0.35 1 1.24-0.63 3.47-1.15 4.96-1.15 1.61 0 2.42-0.41 2-1-0.39-0.55-1.77-1-3.06-1-1.3 0-3.21 0.97-4.25 2.15z"/>
		<path id="Path 17" class="s1" d="m1244.23 683.87l-5.28 1.63 0.05 21.5c84.56 0 93.5 0.26 95.75 1.41 1.51 0.78 3.96 2.69 5.44 4.25 1.47 1.56 3.16 4.08 3.75 5.59 0.58 1.51 1.06 4.55 1.06 6.75 0 2.2-0.62 5.46-1.38 7.25-0.75 1.79-2.67 4.46-4.25 5.94-1.58 1.47-4.11 3.16-5.62 3.75-1.52 0.58-9.69 1.06-18.25 1.06h-15.5l0.5 18.5c5.54 0.64 9.21 4.52 27 25.68 19.2 22.84 21.21 24.93 23.5 24.34 1.37-0.35 4.75-1.71 7.5-3.01 2.75-1.3 5.67-2.8 6.5-3.32 1.21-0.78-1.63-4.66-14.92-20.33-9.03-10.65-17.01-20.15-17.75-21.11-1.21-1.59-0.81-1.89 4.42-3.33 3.16-0.87 7.55-2.61 9.75-3.88 2.2-1.26 5.77-4.27 7.94-6.67 2.17-2.4 5.09-6.85 6.5-9.87 2.18-4.68 2.56-6.91 2.56-15 0-8.08-0.38-10.32-2.55-15-1.4-3.02-4.37-7.52-6.61-10-2.23-2.48-6.59-5.85-9.69-7.5-3.11-1.65-5.65-3.34-5.65-3.75 0-0.41-2.36-1.48-5.25-2.37-3.2-0.99-6.81-1.4-9.25-1.05-2.2 0.32-5.8 0.86-8 1.22-2.72 0.43-5.44 0.08-8.5-1.1-3.08-1.18-5.76-1.52-8.5-1.08-2.2 0.36-5.8 0.92-8 1.25q-4 0.6-9.08-1.22c-4.37-1.56-5.73-1.65-9.75-0.61-2.57 0.67-6.13 1.22-7.92 1.23-1.79 0.01-5.28-0.67-7.75-1.52-2.47-0.85-5.17-1.48-6-1.4-0.83 0.07-3.87 0.87-6.77 1.77z"/>
		<path id="Path 18" class="s1" d="m1015.5 682.19c-2.2 0.5-5.46 2.01-7.25 3.36-1.79 1.35-3.26 3.01-3.28 3.7q-0.03 1.25 2.04-0.5c1.15-0.96 2.96-1.75 4.04-1.75 1.07 0 2.18 0.45 2.45 1 0.27 0.55-0.96 1.18-2.75 1.41-1.79 0.23-4.15 0.61-5.25 0.85-1.29 0.28-2.41 1.81-3.17 4.34-0.64 2.14-0.92 5.47-0.62 7.4 0.31 1.92 1.13 4.62 1.83 6 0.71 1.37 2.56 3.71 4.12 5.19 1.56 1.47 4.08 3.16 5.59 3.75 1.51 0.58 4.33 1.06 6.25 1.06 1.92 0 5.19-0.7 7.25-1.56 2.06-0.86 4.6-2.32 5.64-3.25 1.04-0.93 2.72-3.49 3.73-5.69 1.01-2.2 1.85-5.69 1.86-7.75 0.01-2.06-0.71-5.21-1.6-7-0.89-1.79-2.57-4.31-3.75-5.6-1.17-1.28-3.26-2.91-4.63-3.6-1.38-0.7-3.85-1.49-5.5-1.77-1.65-0.27-4.8-0.09-7 0.41z"/>
		<path id="Path 19" class="s0" d="m1024.47 693.83c-1.06 1.06-1.76 3.06-1.66 4.75 0.1 1.61 0.85 3.93 1.68 5.17 0.83 1.24 2.41 2.25 3.51 2.25 1.1 0 2.68-1.01 3.51-2.25 0.83-1.24 1.52-3.6 1.53-5.25 0.01-1.65-0.78-3.78-1.76-4.72-0.98-0.95-2.5-1.74-3.38-1.75-0.88-0.02-2.43 0.79-3.43 1.8z"/>
		<path id="Path 20" class="s1" d="m1025.47 694.83c-1.01 1-1.75 2.58-1.65 3.5 0.1 0.92 0.63 2.57 1.18 3.67 0.55 1.1 1.9 2 3 2 1.1 0 2.22-0.45 2.5-1 0.28-0.55-0.4-1.23-1.5-1.5q-2-0.5-2-3c0-1.38 0.67-2.73 1.5-3 0.83-0.28 1.28-0.95 1-1.5-0.28-0.55-0.88-1-1.35-1-0.47 0-1.68 0.82-2.68 1.83z"/>
		<path id="Path 21" class="s0" d="m1006.5 693.57c-1.01 0.97-1.62 3.08-1.57 5.5 0.04 2.16 0.74 4.6 1.57 5.43 0.83 0.82 2.4 1.5 3.5 1.5 1.1 0 2.68-1.01 3.51-2.25 0.83-1.24 1.52-3.6 1.53-5.25 0.01-1.65-0.78-3.78-1.76-4.72-0.98-0.95-2.54-1.74-3.46-1.75-0.92-0.02-2.42 0.68-3.32 1.54z"/>
		<path id="Path 22" class="s1" d="m1007.47 694.83c-1.01 1-1.75 2.58-1.65 3.5 0.1 0.92 0.63 2.57 1.18 3.67 0.55 1.1 1.9 2 3 2 1.1 0 2.22-0.45 2.5-1 0.27-0.55-0.17-1-1-1-0.83 0-1.95-0.9-2.5-2-0.78-1.56-0.56-2.44 1-4 1.1-1.1 1.66-2.24 1.25-2.53-0.41-0.29-1.02-0.51-1.35-0.5-0.33 0.02-1.43 0.85-2.43 1.86z"/>
		<path id="Path 23" class="s0" d="m1024.55 688c-0.3 0.55 0.58 1 1.95 1 1.38 0 3.51 0.52 4.75 1.15l2.25 1.14c-3.1-3.38-4.99-4.34-6.2-4.32-1.21 0.02-2.45 0.48-2.75 1.03z"/>
		<path id="Path 24" class="s1" d="m959 682.85c-1.92 1.02-4.85 3.76-6.5 6.09-2.42 3.42-2.99 5.23-2.96 9.4q0.04 5.16 2.29 9.16c1.24 2.2 3.92 5.11 5.96 6.47 2.1 1.4 5.66 2.65 8.21 2.88 3.14 0.28 5.94-0.24 9.25-1.72 2.99-1.34 5.69-3.52 7.27-5.88 1.39-2.06 2.8-5.55 3.13-7.75 0.35-2.33 0.05-5.67-0.73-8-0.73-2.2-2.48-5.31-3.88-6.92-1.39-1.6-4-3.51-5.79-4.25-1.79-0.73-5.39-1.33-8-1.33-2.71-0.01-6.25 0.79-8.25 1.85z"/>
		<path id="Path 25" class="s0" d="m972.47 692.83c-1.01 1-1.77 2.69-1.69 3.75 0.07 1.06 1 3.04 2.07 4.42 1.74 2.25 2.18 2.38 4.54 1.25 1.61-0.77 2.72-2.21 2.9-3.76 0.15-1.38-0.3-3.63-1-5-0.71-1.37-2.12-2.49-3.14-2.49-1.02 0-2.68 0.82-3.68 1.83z"/>
		<path id="Path 26" class="s1" d="m974.09 693.25c-0.63 0.69-1.02 2.6-0.86 4.25 0.21 2.37 0.8 3.06 2.77 3.28 2.13 0.23 2.24 0.12 0.75-0.75-0.96-0.57-1.75-2.15-1.75-3.53 0-1.38 0.45-2.5 1-2.5 0.55 0 1-0.45 1-1 0-0.55-0.4-1-0.89-1-0.49 0-1.4 0.56-2.02 1.25z"/>
		<path id="Path 27" class="s0" d="m956.47 692.83c-1.01 1-1.77 2.69-1.69 3.75 0.07 1.06 1 3.04 2.07 4.42 1.65 2.14 2.26 2.35 4.29 1.41 1.36-0.62 2.59-2.26 2.9-3.85 0.3-1.53-0.03-3.85-0.75-5.17-0.71-1.31-2.12-2.39-3.14-2.39-1.02 0-2.68 0.82-3.68 1.83z"/>
		<path id="Path 28" class="s1" d="m958.09 693.25c-0.63 0.69-1.02 2.6-0.86 4.25 0.2 2.27 0.82 3.06 2.52 3.25l2.25 0.25c-3.1-3.1-3.78-4.67-3.5-5.5 0.27-0.83 0.95-1.5 1.5-1.5 0.55 0 1-0.45 1-1 0-0.55-0.4-1-0.89-1-0.49 0-1.4 0.56-2.02 1.25z"/>
		<path id="Path 29" class="s1" d="m234.5 678.37c-2.2 0.68-6.03 2.6-8.5 4.27-2.47 1.67-6.13 5.02-8.13 7.45-2 2.43-4.52 6.21-5.61 8.41-1.1 2.2-2.5 5.58-3.12 7.5-0.62 1.92-1.58 6.99-2.13 11.25-0.68 5.21-0.68 10.94 0 17.5 0.56 5.36 1.93 13.12 3.06 17.25 1.12 4.12 3.69 10.87 5.72 15 2.45 4.98 5.88 9.74 10.2 14.16 4.9 5.02 8.49 7.6 14.51 10.45 6.58 3.11 9.33 3.84 15.5 4.13l7.5 0.34c-5.43-2.43-8.01-3.12-9.25-3.11-1.24 0.02-4.84-0.88-8-1.99-3.16-1.11-7.44-3.14-9.5-4.5-2.06-1.36-3.53-2.93-3.25-3.48 0.28-0.55-0.18-0.77-1-0.5-0.96 0.32-3.35-1.74-6.66-5.75-2.84-3.44-6.67-9.4-8.51-13.25-1.85-3.85-3.12-7.56-2.84-8.25 0.28-0.69 0.17-1.24-0.24-1.23-0.41 0.01-1.53-3.48-2.48-7.75-0.95-4.27-2.05-11.37-2.44-15.77-0.45-4.96-0.36-7.75 0.23-7.34 0.55 0.38 0.94-1.56 0.94-4.74 0-3.07 0.43-5.31 1-5.19 0.55 0.12 0.9 0.9 0.78 1.74-0.12 0.84-0.01 0.97 0.25 0.28 0.26-0.69 0.81-1.24 1.22-1.22 0.41 0.02 1.52 0.58 2.46 1.25 1.6 1.15 1.6 1.49 0 5.98-1.44 4.02-1.94 4.56-3.16 3.5-1.24-1.07-1.28-1-0.25 0.49 0.95 1.39 0.89 2.48-0.3 5.25-0.94 2.2-1.13 3.69-0.5 4 0.55 0.27 0.93 0.16 0.84-0.25-0.09-0.41 0.13-1.99 0.5-3.5 0.36-1.51 1.22-2.75 1.91-2.75 0.69 0.01 2.52 1.02 4.07 2.25 2.5 2 2.69 2.55 1.75 5-0.59 1.51-1.29 2.75-1.57 2.75-0.28 0-1.74-0.72-3.25-1.6l-2.75-1.61c4.24 3.65 5.48 5.38 5.48 6.21 0.01 0.83-0.89 2.96-1.98 4.75-1.1 1.79-1.66 3.48-1.25 3.76 0.41 0.28 1.57-1.4 2.57-3.75 1-2.34 2.01-4.37 2.25-4.51 0.24-0.14 1.89 0.73 3.68 1.93 1.79 1.19 3.47 2.33 3.75 2.52 0.28 0.19-0.18 2.15-1 4.35-0.82 2.2-2.06 3.99-2.75 3.97-0.69-0.01-1.47-0.47-1.75-1.02-0.28-0.55-1.51-1.48-2.75-2.06-1.4-0.66-0.92 0.06 1.25 1.9 3.24 2.74 3.41 3.15 2.25 5.56-1.21 2.51-1.35 2.54-4 1.04l-2.75-1.56c3.88 3.38 4.87 5.1 4.71 5.99q-0.3 1.64 0.5 0.44c0.59-0.89 1.62-0.7 4.04 0.75 1.79 1.07 3.25 2.61 3.25 3.44 0 0.83 0.45 1.27 1 1 0.55-0.27 2.36 0.29 4.01 1.25 1.66 0.96 2.99 2.2 2.97 2.75-0.03 0.55-0.69 2.12-1.48 3.5-0.79 1.37-1.43 2.95-1.42 3.5 0 0.55 0.89-0.69 1.96-2.75 1.08-2.06 2.3-3.74 2.71-3.72 0.41 0.02 1.65 0.69 2.75 1.5 1.29 0.94 1.77 2.08 1.36 3.21-0.35 0.97-0.94 2.66-1.31 3.76-0.37 1.1 0.09 0.65 1.02-1 0.93-1.65 1.86-3.11 2.06-3.25 0.2-0.14 1.5 0.42 2.87 1.25 2.39 1.44 2.44 1.63 1 4.5-0.82 1.65-1.39 3.23-1.25 3.51 0.14 0.27 0.93-0.87 1.75-2.54 0.82-1.68 1.72-3.02 2-2.99 0.28 0.04 1.63 0.92 3 1.96 2.29 1.72 2.39 2.13 1.23 4.72-1.17 2.64-1.15 2.7 0.27 0.84 0.84-1.1 1.53-2.34 1.52-2.75-0.01-0.41 1.67 0.24 3.73 1.46 2.06 1.21 3.86 2.56 4 3 0.14 0.43 1.04 0.79 2 0.79 1 0.01-0.51-1.5-3.5-3.5-4.81-3.21-5.16-3.69-4.11-5.75 0.62-1.24 1.29-2.36 1.5-2.5 0.2-0.14 1.74 0.54 3.43 1.5 2.64 1.5 2.99 2.18 2.52 4.75-0.49 2.62-0.41 2.75 0.57 1 0.63-1.1 1.29-2.11 1.49-2.25 0.19-0.14 1.49 0.54 2.88 1.5 2.42 1.68 2.45 1.82 0.75 3.53-1.71 1.71-1.7 1.79 0.22 1.79 1.1 0 4.02-1.74 6.5-3.86 3.01-2.58 6.06-6.82 9.2-12.78 2.59-4.91 5.67-12.53 6.86-16.93 1.59-5.88 2.17-10.91 2.18-19 0.02-9.17-0.41-12.33-2.58-19-1.44-4.4-4.31-10.91-6.38-14.46-2.08-3.56-6.48-9.2-9.78-12.53-3.3-3.34-8.48-7.49-11.5-9.24-3.02-1.74-8.2-4.1-11.5-5.24-3.45-1.18-8.34-2.03-11.5-1.98-3.03 0.05-7.3 0.64-9.5 1.32z"/>
		<path id="Path 30" class="s0" d="m271.63 777.75c-0.26 0.41-0.95 1.99-1.55 3.5-0.99 2.53-0.82 2.9 2.17 4.63l3.25 1.89c4.26-4.09 5.24-5.5 4.92-5.77-0.32-0.27-1.25 0.4-2.07 1.5-1.43 1.93-1.46 1.91-0.83-0.5 0.51-1.98 0.11-2.87-1.94-4.25-1.42-0.96-2.78-1.75-3.03-1.75-0.25 0-0.66 0.34-0.92 0.75zm9.41-0.17c-0.57 1.33-1.04 2.65-1.04 2.92 0 0.27 0.45 0.5 1 0.5 0.55 0 1.68-1.13 2.5-2.5 1.31-2.18 1.31-2.55 0.04-2.92-0.84-0.24-1.89 0.6-2.5 2zm-28.45 0.38c-1.54 2.95-1.51 3.09 0.91 4.54 1.38 0.83 2.84 1.51 3.25 1.53 0.41 0.01 1.31-1.11 2-2.5 1.14-2.31 1-2.7-1.66-4.57l-2.92-2.03zm10.54-3.47c-0.62 1.38-1.12 2.95-1.12 3.5 0 0.55 1.35 1.9 3 3l3 2c2.92-6.82 2.89-7.09 0.75-8.96-1.24-1.08-2.76-1.98-3.38-2-0.61-0.02-1.63 1.09-2.25 2.46zm-16.59-0.5c-1.47 2.89-1.44 3.06 0.97 4.5 2.32 1.4 2.6 1.35 4-0.75 0.83-1.23 1.53-2.53 1.54-2.88 0.02-0.35-1.09-1.37-2.47-2.26-2.43-1.57-2.55-1.53-4.04 1.39zm27.6-2.47c-0.51 1.43-0.99 2.91-1.05 3.29-0.07 0.38 1.23 1.7 2.89 2.93l3.03 2.25c1.55-3.87 2.02-5.36 2.05-5.81 0.03-0.44-1.3-1.81-2.97-3.04l-3.02-2.22zm10.04-1.02c-0.64 1.37-0.95 2.94-0.67 3.49 0.27 0.55 0.83 1.01 1.25 1.03 0.41 0.02 1.31-1.11 2-2.5 1.01-2.05 1-2.72-0.08-3.52-0.98-0.73-1.63-0.34-2.5 1.5zm-27.72-0.29c-1.69 3.27-1.69 3.29 1.17 5.49 1.58 1.21 2.96 2.11 3.06 2 0.1-0.12 0.87-1.78 1.7-3.71 1.48-3.45 1.46-3.53-1.36-5.28l-2.87-1.78zm-16.39-0.47c-1.06 2.45-0.94 2.93 1.12 4.43 1.27 0.92 2.76 1.32 3.31 0.88 0.55-0.45 1.34-1.76 1.75-2.93 0.59-1.66 0.2-2.47-1.75-3.63-1.37-0.83-2.66-1.5-2.87-1.5-0.2 0-0.91 1.24-1.56 2.75zm36.76-4.4c-1.22 2.29-1.09 2.68 1.67 5 1.65 1.38 3.29 2.2 3.64 1.83 0.35-0.37 0.92-1.69 1.25-2.93 0.47-1.73-0.06-2.73-2.31-4.31l-2.92-2.07zm-26.98 0.78c-1.26 2.93-1.19 3.26 1.15 5.07l2.5 1.95c3.42-6.98 3.42-7.22 1.75-8.62-0.96-0.81-2.27-1.48-2.9-1.5-0.64-0.02-1.76 1.38-2.5 3.1zm-17.75-1.38c-0.63 1.51-1.03 2.78-0.87 2.82 0.15 0.04 1.73 1.06 3.52 2.25l3.25 2.18c2.97-5.94 2.94-6.04-0.25-7.97-1.79-1.08-3.53-1.98-3.87-2-0.34-0.02-1.14 1.21-1.78 2.72zm55.08-0.78c-0.65 1.67-0.95 3.48-0.68 4.03 0.28 0.55 0.84 1 1.25 1.01 0.41 0 1.31-1.35 2-3 1.02-2.45 1-3.2-0.07-4.04-1-0.79-1.6-0.3-2.5 2zm-26.76-1.73c-1.61 3.17-1.6 3.31 0.71 5.05 1.31 0.99 2.71 1.78 3.12 1.75 0.41-0.02 1.21-1.5 1.77-3.29 0.56-1.79 1.03-3.31 1.04-3.39 0.01-0.07-1.1-0.86-2.48-1.75-2.45-1.58-2.55-1.54-4.16 1.63zm-16.29-0.51l-2 3.77c4.55 2.71 5.86 3.39 5.85 3.25-0.02-0.14 0.61-1.83 1.4-3.75 1.35-3.32 1.3-3.59-0.92-5.27-2.32-1.76-2.36-1.74-4.33 2zm-20.1-2.94c-1.08 2.46-0.93 2.92 1.64 4.95 1.56 1.24 3.39 2.25 4.08 2.25 0.69 0.01 1.54-1.23 1.88-2.74 0.47-2.04 0.15-3.09-1.25-4.07-1.03-0.73-2.62-1.73-3.52-2.21-1.27-0.68-1.92-0.27-2.83 1.82zm29.82-0.67c-1.23 2.84-1.17 3.25 0.65 4.52 1.1 0.77 2.34 1.39 2.75 1.38 0.41-0.01 1.41-1.26 2.22-2.77 1.33-2.48 1.3-2.92-0.25-4.48-0.94-0.94-2.24-1.73-2.87-1.75-0.64-0.01-1.76 1.38-2.5 3.1zm10.1-2.87c-0.95 1.89-0.78 2.57 1.02 4.25l2.15 2c2.26-3.1 2.93-4.29 2.94-4.64 0.01-0.34-1.1-1.36-2.48-2.25-2.38-1.53-2.56-1.5-3.63 0.64zm27.09-0.5q-2.25 5.75-1.25 6.75 1 1 1.54 0c0.3-0.55 0.78-2.58 1.07-4.5 0.28-1.93 0.77-4.51 1.07-5.75 0.3-1.24 0.38-2.25 0.18-2.25-0.19 0-1.37 2.59-2.61 5.75zm-8.31-3.3c-1.01 2.02-0.96 2.74 0.27 4.12 0.83 0.91 2.29 2.06 3.25 2.55 1.39 0.7 1.96 0.31 2.77-1.87 0.87-2.32 0.67-3.1-1.25-5.03-1.25-1.25-2.61-2.26-3.04-2.25-0.42 0.02-1.32 1.13-2 2.48zm-25.2-0.7c-0.51 2.16-0.15 3.11 1.66 4.44 2.21 1.62 2.36 1.6 3.49-0.5 0.99-1.85 0.84-2.55-1-4.47-1.2-1.25-2.48-2.26-2.84-2.25-0.36 0.02-0.95 1.27-1.31 2.78zm-29.91 0.25l-1.62 4c5.04 3.09 6.73 4 7 4.01 0.28 0.01 1.12-1.68 1.88-3.75 1.33-3.66 1.29-3.82-1.5-6.01-1.58-1.23-3.16-2.24-3.51-2.25-0.34 0-1.36 1.8-2.25 4zm39.39-2.28c-0.84 2.25-0.71 3.12 0.73 4.56 0.97 0.98 1.99 1.78 2.26 1.78 0.28 0 1.06-1.14 1.75-2.53 0.69-1.39 1.27-2.7 1.29-2.92 0.02-0.21-1.09-1.12-2.48-2.03-2.45-1.6-2.54-1.57-3.55 1.14zm-27.36-1.55c-0.82 1.83-2.42 5.47-3.57 8.08l-2.08 4.75c5.47 4.26 7.17 5.27 7.31 5 0.14-0.28 1.03-2.19 1.97-4.25l1.72-3.75c-5.42-3.1-6.77-4.23-6.5-4.5 0.28-0.28 1.85 0.4 3.5 1.5 1.65 1.1 3.23 2 3.5 2 0.28 0 0.98-1.69 1.57-3.75 0.6-2.06 0.93-3.78 0.75-3.82-0.17-0.04-1.75-1.09-3.5-2.33l-3.18-2.26zm20.98-3.67c-1.48 2.89-1.44 3.08 1.17 5.17l2.7 2.17c2.47-5.08 2.36-5.58 0.13-7.84l-2.46-2.5zm-29.05-1.3c-1.33 2.98-1.31 3.43 0.23 4.62 0.93 0.73 2.48 1.74 3.44 2.25 1.42 0.75 2.03 0.31 3.2-2.32 1.3-2.93 1.27-3.38-0.25-4.57-0.94-0.73-2.48-1.77-3.43-2.3-1.41-0.8-1.99-0.38-3.19 2.32zm48.92-4.42c-0.96 2.05-1.46 4.28-1.12 4.97 0.34 0.69 1.52 1.7 2.62 2.25 1.72 0.86 2.27 0.48 3.96-2.75 1.07-2.06 1.97-3.19 2-2.5 0.02 0.69-0.69 2.71-1.58 4.5-1.6 3.21-1.59 3.28 1.25 5.51l2.87 2.26 3.75-8.52c-5.23-4.38-7.93-6.5-9.38-7.54l-2.62-1.9zm-58.45-1.53c-0.6 1.79-1.1 3.25-1.11 3.25-0.02 0 1.79 1.24 4.01 2.75l4.04 2.75c2.33-4.65 3.02-6.11 3.04-6.25 0.03-0.14-1.77-1.49-4-3-2.22-1.51-4.23-2.75-4.46-2.75-0.23 0-0.91 1.46-1.52 3.25zm68.65-2c-1.54 3.13-1.51 3.34 0.85 5.75 1.34 1.37 2.64 2.27 2.9 2 0.26-0.28 0.24-2.86-0.02-5.75-0.27-2.89-0.86-5.25-1.32-5.25-0.45 0-1.54 1.46-2.41 3.25zm-5.96-5.41c-1.52 3.54-1.49 3.74 0.84 6.16 1.32 1.37 2.56 2.27 2.76 2 0.19-0.28 1.09-2.08 1.99-4 1.32-2.8 1.4-3.77 0.4-4.87-0.68-0.75-1.95-1.72-2.83-2.15-1.22-0.61-1.96 0.07-3.16 2.86zm-59.18-1.13c-0.88 2.08-1.25 4.05-0.83 4.38 0.42 0.32 2.34 1.55 4.26 2.72l3.5 2.13 3.38-6.44-8.72-6.58zm-8.04-6.8c-0.91 1.65-1.63 3.69-1.59 4.54 0.04 0.85 1.53 2.43 3.32 3.51l3.25 1.96c2.71-5.36 3.27-7.37 3-7.92-0.28-0.55-1.81-1.92-3.41-3.04l-2.92-2.03zm71.1-0.92c-1.73 3.45-1.72 3.54 0.57 5.78 1.27 1.25 2.65 2.26 3.06 2.25 0.42-0.02 0.72-0.82 0.68-1.78-0.05-0.96-0.64-3.55-1.31-5.75l-1.24-4zm-5.04-5.2c-1.55 3.48-1.54 3.81 0.14 5.48 0.98 0.99 2.12 1.77 2.53 1.75 0.41-0.01 1.21-1.49 1.77-3.28 0.56-1.79 1.03-3.79 1.06-4.46 0.02-0.67-0.84-1.66-1.91-2.2-1.66-0.84-2.18-0.45-3.59 2.71zm-62.09-2.72l-1.99 4.15c5.04 4.47 6.7 5.66 6.94 5.52 0.24-0.14 1.12-1.82 1.96-3.75 1.5-3.45 1.48-3.54-1.7-6.78l-3.22-3.29zm55.23-3.3c-1.51 3.65-1.48 3.78 1.3 6.72l2.85 3 4.06-8c-3.43-3.25-4.93-4.48-5.55-4.82-0.66-0.36-1.76 0.93-2.66 3.1zm-60.52-0.29l-2.2 4.51c4.42 2.99 4.56 2.9 6.33-1.23 1.09-2.56 1.49-4.82 1-5.66-0.46-0.77-1.3-1.56-1.88-1.77-0.57-0.2-2.03 1.67-3.25 4.15zm63.39-5.99c-0.37 0.95 0.61 2.44 2.66 4.04 1.79 1.4 3.36 2.3 3.5 2 0.14-0.29-0.76-2.1-2-4.02-1.24-1.92-2.55-3.5-2.91-3.5-0.37-0.01-0.93 0.66-1.25 1.48zm-58.94-4c-1.33 2.84-1.41 3.8-0.4 5.05 0.69 0.85 1.7 1.53 2.25 1.51 0.55-0.02 1.9-1.67 3-3.65l2-3.61c-3.1-2.19-4.27-2.82-4.6-2.81-0.33 0.01-1.35 1.59-2.25 3.51zm51.87-2.75c-0.45 1.23 0.35 2.64 2.67 4.67 3.08 2.72 3.35 2.79 3.95 1 0.43-1.3-0.21-2.8-2-4.69-1.45-1.52-2.94-2.76-3.3-2.75-0.37 0.02-0.96 0.81-1.32 1.77zm-10.67 1.4c-1.31 3.05-1.24 3.25 2.15 6.01l3.5 2.86c2.94-6.91 2.9-7.15 0.5-9.56-1.37-1.38-3.02-2.5-3.65-2.48-0.64 0.01-1.76 1.44-2.5 3.17zm3.74-7.65c-0.33 0.83-0.6 1.84-0.61 2.25-0.01 0.42 1.34 1.77 3 3l3.02 2.25c2.12-4.21 1.89-4.78-0.62-6.74-1.58-1.24-3.18-2.25-3.54-2.25-0.37 0-0.93 0.67-1.25 1.49zm-11 1.75c-1.27 3.1-1.19 3.37 1.6 5.75 1.8 1.54 3.22 2.12 3.68 1.5 0.41-0.55 1.25-2.12 1.87-3.5 1-2.22 0.8-2.74-1.81-4.75-1.61-1.23-3.17-2.25-3.47-2.25-0.29 0-1.14 1.47-1.87 3.25zm-32.48-1.75c-0.61 0.83-0.88 1.95-0.61 2.5 0.28 0.55-0.02 0.89-0.65 0.75-0.63-0.13-2.23 1.33-3.54 3.25-1.32 1.93-3.28 5.87-4.35 8.75-1.08 2.89-1.73 5.7-1.46 6.25 0.28 0.55 0.84 1 1.25 1 0.41 0 1.63-2.14 2.7-4.75 1.08-2.61 1.83-4.97 1.67-5.25-0.16-0.27 0.1-0.72 0.57-1 0.47-0.27 2.24-3.31 3.94-6.75 1.69-3.43 2.74-6.25 2.34-6.25-0.41 0-1.25 0.68-1.86 1.5zm35.42-4.94c-0.29 0.8-0.54 1.56-0.55 1.69-0.01 0.14 1.39 1.38 3.12 2.75 2.67 2.12 3.28 2.28 4.01 1 0.47-0.82 0.86-1.97 0.85-2.56-0.01-0.59-1.56-1.8-3.45-2.69-2.96-1.4-3.52-1.43-3.98-0.19z"/>
		<path id="Path 31" class="s1" d="m245.2 683.5c-0.66 1.37-1.76 2.51-2.45 2.52-0.69 0.01-1.71-0.33-2.27-0.75-0.56-0.42-0.28-0.1 0.62 0.73 1.51 1.39 1.49 1.78-0.23 5.25l-1.87 3.75c-5.77-4.39-5.84-4.63-4.45-7.25 0.8-1.51 1.34-2.97 1.2-3.24-0.14-0.27-0.92 0.65-1.75 2.04-0.97 1.63-2.03 2.3-3 1.9-1.19-0.51-1.25-0.36-0.31 0.71 0.93 1.05 0.72 2.05-1 4.65-1.52 2.29-2.5 2.97-3.19 2.23-0.55-0.59-1.45-1.07-2-1.07-0.55 0-0.1 0.63 1 1.41l2 1.41c-3.1 5.6-4.45 7.24-5 7.26-0.55 0.02-1.56-0.66-2.25-1.51-1.01-1.24-0.96-2.12 0.25-4.54 0.83-1.65 1.39-3.22 1.25-3.49-0.14-0.27-0.92 0.74-1.75 2.25-0.82 1.51-1.95 3.07-2.5 3.47-0.55 0.41-0.66 0.75-0.25 0.75 0.41 0.01-0.15 1.82-1.25 4.02-1.1 2.2-1.89 4.51-1.75 5.14 0.14 0.62 1.15-0.74 2.25-3.03 1.1-2.3 2.23-4.18 2.5-4.19 0.28 0 1.18 0.71 2 1.59 1.24 1.32 1.29 2.01 0.25 4.04-0.69 1.35-1.23 3.01-1.21 3.7 0.02 0.69 0.81-0.22 1.75-2.02l1.71-3.28c6.26 6.48 6.3 6.63 4.91 10.3-1.23 3.27-1.67 3.62-3.41 2.75-1.95-0.97-1.95-0.93-0.25 1.4 0.96 1.32 1.98 2.24 2.25 2.03 0.28-0.2 2.38 1.08 4.69 2.85l4.19 3.22-3.38 6.44c-5.04-3.05-6.72-3.71-7-3.44-0.27 0.27 1.07 1.4 3 2.5 2.83 1.62 3.38 2.43 2.9 4.25-0.55 2.05-0.49 2.09 0.75 0.52 1.27-1.63 1.53-1.62 4.6 0.25 2.98 1.82 3.16 2.2 2.17 4.73-0.6 1.51-1.27 3.09-1.5 3.5-0.23 0.41-1.54 0.08-2.92-0.75-1.37-0.83-2.84-1.5-3.25-1.5-0.41 0.01 0.54 1.02 2.12 2.25 2.8 2.19 2.84 2.35 1.5 6.03-0.75 2.07-1.82 3.58-2.37 3.34-0.55-0.23-1.9-0.74-3-1.12-1.68-0.57-1.61-0.39 0.37 1.16 1.89 1.46 2.25 2.45 1.78 4.84-0.56 2.83-0.53 2.87 0.63 0.72 0.67-1.26 1.45-2.28 1.72-2.27 0.28 0.01 1.4 0.68 2.5 1.5 1.1 0.82 2.45 1.5 3 1.51 0.55 0.01-0.46-1.1-2.25-2.47l-3.25-2.49c3.23-7.36 4.8-10.96 5.58-12.75l1.42-3.25c5.04 3.37 6.65 4.39 6.82 4.43 0.18 0.04-0.16 1.76-0.75 3.82-0.59 2.06-1.29 3.75-1.57 3.75-0.27 0-1.85-0.9-3.5-2-1.65-1.1-3.22-1.77-3.5-1.5-0.27 0.27 1.07 1.4 3 2.5 3.46 1.98 3.48 2.04 2 5-0.82 1.65-1.48 3.56-1.46 4.25 0.03 0.69 0.93-0.44 2-2.5 1.94-3.72 1.98-3.73 4.34-2 1.96 1.44 2.22 2.19 1.49 4.25-0.5 1.38-0.7 2.73-0.45 3 0.25 0.27 0.7-0.51 1.01-1.75 0.32-1.24 1.25-2.25 2.07-2.25 0.86 0 1.24-0.54 0.89-1.25-0.33-0.69 0.01-2.51 0.75-4.04 0.75-1.53 1.81-2.77 2.36-2.75 0.55 0.02 1.08-1.43 1.17-3.21 0.09-1.79 0.77-3.58 1.5-3.98 0.73-0.41 0.99-0.75 0.58-0.75-0.41-0.01-0.02-1.48 0.87-3.27l1.63-3.25c4.46 5.04 5.86 6.31 6 6.07 0.14-0.24 1.29 0.32 2.56 1.25 2.11 1.53 2.2 1.93 1 4.46-0.72 1.53-1.65 2.76-2.06 2.75-0.41-0.02-0.52 0.64-0.25 1.47 0.27 0.83-0.4 2.4-1.5 3.5-1.1 1.1-1.78 2.11-1.51 2.25 0.27 0.14 0.05 1.71-0.5 3.5-0.82 2.7-1.37 3.16-3.24 2.7-1.98-0.49-2.06-0.4-0.64 0.75 1.2 0.97 1.39 1.94 0.74 3.8-0.48 1.38-0.67 2.73-0.42 3 0.24 0.27 0.69-0.51 1-1.75 0.32-1.24 1.13-2.24 1.82-2.22 0.69 0.02 2.23 0.81 3.42 1.75 1.57 1.24 2.02 2.42 1.63 4.22-0.51 2.33-0.46 2.37 0.83 0.62 1.31-1.8 1.5-1.81 4.37-0.15l3 1.74c-4.24-3.65-5.48-5.05-5.49-5.46 0-0.41 0.44-1.99 1-3.5 0.94-2.55 1.14-2.63 2.75-1.15 0.96 0.88 2.42 1.93 3.24 2.33 0.83 0.4 0.15-0.47-1.5-1.93-2.71-2.41-2.88-2.9-1.75-5.08l1.25-2.42c5.46 3.64 5.9 4.49 5.44 6.75-0.55 2.71-0.53 2.72 0.75 0.46 0.72-1.26 1.72-1.93 2.22-1.5 0.51 0.45 0.62 0.25 0.25-0.46-0.36-0.69-0.21-2.6 0.34-4.25 0.55-1.65 1.45-2.77 2-2.5 0.57 0.29 0.79-0.36 0.5-1.5-0.27-1.1-0.95-1.77-1.5-1.5-0.55 0.27-2.24-0.57-3.75-1.89-2.49-2.16-2.63-2.63-1.5-5 0.88-1.84 1.77-2.43 3-2.02 1.43 0.49 1.52 0.35 0.5-0.75-1.01-1.08-0.91-2.17 0.5-5.57 1.74-4.19 1.77-4.21 4.25-2.6l2.5 1.62c-4.22-4.6-4.28-5.01-2.95-7.54 0.8-1.51 1.22-3.09 0.94-3.5-0.28-0.41-0.95 0.71-1.5 2.5-0.54 1.79-1.33 3.26-1.74 3.28-0.41 0.01-1.7-1-2.87-2.25-2.03-2.19-2.05-2.43-0.5-6.01 1.6-3.69 1.65-3.71 4.12-2.08l2.5 1.65c-3.76-4.02-4.33-5.52-3.92-6.84 0.49-1.62 0.4-1.71-0.45-0.5-0.93 1.31-1.34 1.24-3.18-0.5-2.01-1.9-2.04-2.16-0.53-5.25 0.87-1.79 1.56-3.59 1.54-4-0.03-0.41-0.96 1.05-2.07 3.25l-2.03 4c-5.66-5.98-5.67-6.02-4.02-9.75 1.63-3.67 1.71-3.72 4.16-2.19 1.38 0.85-0.11-0.84-3.31-3.75-4.6-4.2-5.66-5.73-5.11-7.31 0.66-1.91 0.62-1.91-0.7-0.16-1.27 1.7-1.49 1.72-2.88 0.21-0.82-0.9-1.95-1.63-2.5-1.62-0.55 0.01 0.13 1.15 1.5 2.53 2.4 2.4 2.44 2.64 1 5.98l-1.5 3.48c-5.04-3.81-6.5-5.59-6.5-6.42 0-0.83-0.45-1.27-1-1-0.55 0.27-2.28-0.51-3.84-1.75-2.36-1.88-2.69-2.67-1.99-4.75 0.47-1.38 0.61-2.73 0.31-3-0.29-0.27-0.53-0.05-0.52 0.5 0 0.55-0.4 1.67-0.9 2.5-0.77 1.28-1.52 1.09-4.98-1.25-4.06-2.73-4.07-2.77-2.58-5.75 0.83-1.65 1.37-3.23 1.2-3.5-0.16-0.28-0.84 0.62-1.5 2z"/>
		<path id="Path 32" class="s0" d="m266.94 765.93c-0.62 1.07-1.08 2.64-1.03 3.5 0.05 0.87 1.1 2.25 2.34 3.08 1.24 0.83 2.48 1.51 2.75 1.53 0.27 0.01 1.08-1.23 1.78-2.76 1.15-2.5 1.05-3.01-1-5.06-1.25-1.25-2.6-2.26-3-2.25-0.4 0.02-1.23 0.9-1.84 1.96zm2.96-5.68c-1.02 1.97-0.81 2.52 1.72 4.47l2.88 2.23c2.17-4.11 2.02-4.8 0.18-6.73-1.2-1.25-2.5-2.26-2.9-2.25-0.4 0.02-1.25 1.04-1.88 2.28zm9.93-1.7c-1.24 2.49-1.12 2.85 1.67 5.17 2.88 2.4 3.05 2.43 4.27 0.64 0.69-1.02 1.31-2.39 1.37-3.04 0.06-0.65-1.26-2.14-2.94-3.31l-3.05-2.14zm-7.09-4.93c-1.11 2.35-0.98 2.81 1.27 4.54 1.37 1.06 2.83 1.91 3.25 1.89 0.41-0.03 1.15-1.06 1.64-2.29 0.69-1.74 0.4-2.77-1.25-4.53-1.18-1.25-2.49-2.26-2.91-2.25-0.42 0.01-1.32 1.2-2 2.64zm-25.1-0.07c-1.61 3.4-1.59 3.48 0.87 4.96 1.37 0.82 2.66 1.38 2.87 1.25 0.2-0.14 1.08-1.6 1.94-3.25 1.52-2.93 1.49-3.05-1.25-4.71l-2.8-1.71zm28.42-6.79c-1.08 2.45-0.96 2.94 1.12 4.54 1.28 0.98 2.67 1.77 3.08 1.75 0.41-0.02 1.23-1.28 1.81-2.79 0.92-2.39 0.76-2.99-1.25-4.55-1.27-0.98-2.59-1.77-2.93-1.75-0.35 0.03-1.17 1.28-1.83 2.8zm-24.92-0.25c-1 2.2-0.84 2.67 1.37 4 1.37 0.82 2.66 1.38 2.86 1.25 0.2-0.14 0.88-1.27 1.5-2.5 0.97-1.92 0.81-2.47-1.11-3.76-1.24-0.83-2.53-1.51-2.87-1.5-0.35 0-1.13 1.13-1.75 2.51z"/>
		<path id="Path 33" class="s1" d="m285.73 742.42c-1.32 2.73-2.14 3.42-3.48 2.89-1.46-0.57-1.54-0.44-0.49 0.75 0.92 1.05 0.98 2.18 0.25 4.19-0.56 1.51-1.24 2.75-1.51 2.75-0.27 0-1.51-0.52-2.75-1.15l-2.25-1.14c3.1 3.49 3.85 5.47 3.67 6.65-0.33 2.12-0.31 2.12 1.1 0.14 1.03-1.44 1.61-1.65 2.08-0.75 0.36 0.69 1.21 1.26 1.9 1.28 0.74 0.02 0.44-0.8-0.75-2.02-1.73-1.78-1.83-2.39-0.75-4.53 0.69-1.36 1.7-2.48 2.25-2.48 0.55 0 0.77-0.45 0.5-1-0.27-0.55 0.17-2.35 1-4 0.82-1.65 1.38-3.49 1.23-4.08-0.14-0.59-1.04 0.53-2 2.5z"/>
		<path id="Path 34" class="s0" d="m270.1 741.75c-0.97 2.31-0.87 3.04 0.62 4.53 0.98 0.98 2.12 1.77 2.53 1.75 0.41-0.02 1.41-1.27 2.22-2.78 1.33-2.48 1.3-2.92-0.25-4.47-0.95-0.95-2.23-1.74-2.84-1.75-0.62-0.02-1.64 1.21-2.28 2.72zm-15.97-2.25c-0.93 2.06-0.83 2.76 0.62 3.97 0.96 0.82 2.31 1.49 3 1.5 0.69 0.02 1.65-0.98 2.14-2.22 0.65-1.64 0.44-2.73-0.75-4.03-0.9-0.98-2.15-1.77-2.76-1.75-0.62 0.02-1.63 1.15-2.25 2.53zm-11.13-0.6c-0.65 1.08-1.12 2.56-1.05 3.28 0.08 0.73 1.69 2.33 3.59 3.57l3.46 2.25c1.68-3.49 1.91-5.06 1.59-5.75-0.33-0.69-1.9-2.16-3.5-3.28-2.89-2.02-2.92-2.02-4.09-0.07zm20.99-2.15c-0.63 2.06-0.99 3.75-0.81 3.76 0.17 0.01 1.33 0.79 2.57 1.75 2.2 1.7 2.28 1.67 3.75-1.51 1.43-3.07 1.38-3.38-0.75-5.53-1.24-1.25-2.56-2.26-2.94-2.25-0.38 0.02-1.2 1.72-1.82 3.78zm-28.94-2c-1.11 2.51-0.97 2.95 1.62 5 1.56 1.23 3.05 2.26 3.33 2.27 0.27 0.02 1.08-1.21 1.78-2.74 1.15-2.5 1.05-3.01-1-5.06-1.25-1.25-2.79-2.26-3.4-2.25-0.62 0.02-1.67 1.27-2.33 2.78z"/>
		<path id="Path 35" class="s1" d="m244.55 733c-0.53 1.92-0.66 1.93-3.3 0.3l-2.75-1.7c3.79 4.1 4.32 5.55 3.88 6.9l-0.65 2c2.56-3.45 3.15-3.66 3.62-2.75 0.36 0.69 1.21 1.26 1.9 1.28q1.23 0.02-0.46-1.75c-0.98-1.03-1.51-2.73-1.24-4.03 0.25-1.24 0.26-2.25 0.01-2.25-0.25 0-0.7 0.9-1.01 2z"/>
		<path id="Path 36" class="s0" d="m274.24 733.6c-1.73 3.57-1.72 3.61 0.76 5.59l2.5 1.99 4-8.16c-3.1-2.29-4.34-2.97-4.76-2.99-0.42-0.02-1.55 1.59-2.5 3.57zm-28.33-0.85c-0.96 2.48-0.74 3.02 2.27 5.51 1.82 1.52 3.54 2.76 3.82 2.76 0.27 0 1.06-1.36 1.75-3.01 1.19-2.87 1.09-3.12-2.25-5.51-1.93-1.38-3.73-2.5-4.02-2.5-0.29 0-0.99 1.24-1.57 2.75zm3.6-8.25c-1.44 3.33-1.4 3.6 0.74 5.52 1.24 1.11 2.92 2.43 3.75 2.93 1.17 0.71 1.79 0.1 2.83-2.77 1.27-3.52 1.21-3.8-1.5-6.45-1.56-1.53-3.16-2.76-3.57-2.75-0.41 0.01-1.42 1.6-2.25 3.52zm29.71-0.84l-2.15 3.84 4.8 5c2.42-5.04 3.14-7.06 3.16-7.75 0.02-0.69-0.8-2.08-1.82-3.09-1.8-1.8-1.91-1.74-3.99 2zm-49.51-5.44c-0.74 2.04-1.41 4.07-1.49 4.5-0.08 0.43 1.64 2.02 3.82 3.53l3.96 2.75 3.18-6.5-8.12-8zm42.66-0.19l-1.87 3.97c3.87 3.92 5.22 5.05 5.5 5.05 0.27 0 1.28-1.59 2.25-3.53 0.96-1.93 1.8-3.94 1.87-4.45 0.07-0.51-1.23-1.85-2.88-2.97l-3-2.04zm-31.62 3.94l-3.75 8.03 6.5 4.97c2.94-5.84 2.88-6.07 0-8.98-1.65-1.67-2.55-3.01-2-2.99 0.55 0.03 2.01 1.05 3.24 2.28l2.25 2.22c3.13-7.96 3.12-8.02 0.33-10.78l-2.82-2.78zm12.85-6.22c-0.93 2.07-1.33 3.99-0.9 4.27 0.44 0.28 2.02 1.63 3.51 3l2.72 2.48 3.57-7.48c-4.65-4.7-6.27-6.05-6.6-6.04-0.34 0.01-1.37 1.71-2.3 3.77zm-19.93-6.25c-0.97 2.06-1.74 4.03-1.7 4.38 0.03 0.34 1.74 2.05 3.8 3.8l3.73 3.18c3.27-6.45 3.63-8.16 3-8.63-0.55-0.41-2.36-2.03-4.03-3.61l-3.03-2.87z"/>
		<path id="Path 37" class="s1" d="m265.19 705.72c1.59 1.67 1.58 2.05-0.26 6.28l-1.95 4.5c-3.47-3.45-4.93-4.48-5.48-4.5-0.55-0.02 0.35 1.32 2 2.99l3 3.03-3.57 7.48c-3.43-3.45-4.88-4.48-5.43-4.5-0.55-0.02 0.27 1.2 1.83 2.73 2.7 2.65 2.77 2.93 1.5 6.42-0.94 2.58-1.77 3.48-2.83 3.07-1.2-0.48-1.27-0.31-0.31 0.84 0.77 0.94 0.87 1.97 0.27 2.94-0.51 0.83-0.91 2.17-0.88 3 0.04 0.94 0.5 0.64 1.24-0.78 0.65-1.26 1.63-2.28 2.18-2.28 0.55 0 1.74 0.8 2.64 1.78 1.19 1.3 1.4 2.39 0.75 4.03-0.49 1.24-1.68 2.23-2.64 2.21-1.56-0.04-1.59 0.12-0.25 1.54 0.82 0.87 1.84 1.57 2.25 1.54 0.41-0.02 0.55-0.38 0.3-0.79-0.24-0.41 0.36-2.1 1.34-3.75 0.98-1.65 2.31-4.69 2.95-6.75 0.64-2.06 1.5-3.76 1.91-3.78 0.41-0.01 1.88 1.12 3.25 2.52 2.01 2.04 2.25 2.78 1.23 3.77-0.69 0.68-1.23 1.91-1.18 2.74 0.05 0.94 0.53 0.63 1.27-0.83 0.8-1.57 1.75-2.14 2.93-1.75 1.46 0.49 1.57 0.29 0.63-1.17-0.86-1.34-0.75-2.51 0.5-5 0.89-1.79 2.07-3.25 2.62-3.25 0.55 0 1.23 0.45 1.5 1 0.27 0.55 1.06 1 1.75 1.01 0.72 0 0.31-0.96-0.95-2.25-2.02-2.08-2.08-2.48-0.75-5.01 0.8-1.51 1.34-2.98 1.2-3.26-0.14-0.27-0.93 0.87-1.75 2.54-0.82 1.68-1.73 3.04-2 3.04-0.27-0.01-1.62-1.16-3-2.55l-2.5-2.52 4-7.91 6 4.21c-5.21-5.68-5.26-5.95-3.87-9.3 0.8-1.92 1.32-3.62 1.16-3.76-0.16-0.14-0.97 1.12-1.79 2.79-0.82 1.68-1.73 3.04-2 3.03-0.27-0.01-2.41-1.6-4.75-3.54-2.34-1.94-4.59-3.53-5-3.55-0.41-0.02 0.01 0.77 0.94 1.75z"/>
		<path id="Path 38" class="s0" d="m258.13 730.5c-0.62 1.38-1.13 3.17-1.13 4 0 0.83 1.01 2.14 2.25 2.92 2.1 1.32 2.36 1.21 3.94-1.75 1.64-3.06 1.62-3.24-0.5-5.4-1.2-1.22-2.47-2.24-2.81-2.25-0.34-0.01-1.13 1.11-1.75 2.48zm9.93-2.52l-2.06 4.02 6 4c2.32-4.65 2.99-6.56 2.97-7.25-0.02-0.69-1.12-2.05-2.44-3.02-2.41-1.77-2.42-1.77-4.47 2.25zm-6.48-5.23c-1.69 3.7-1.69 3.77 0.6 5.48 1.28 0.95 2.55 1.75 2.82 1.77 0.27 0.02 1.29-1.54 2.25-3.48 1.72-3.46 1.71-3.56-0.5-5.49-1.24-1.08-2.52-1.98-2.85-2-0.33-0.02-1.38 1.66-2.32 3.72zm4.13-10c-1.49 3.63-1.46 3.83 0.96 6.25 2.47 2.47 2.51 2.48 3.95 0.5 0.81-1.1 1.71-3.12 2.01-4.5q0.53-2.5-1.3-4.28c-1.01-0.98-2.34-1.77-2.96-1.75-0.62 0.02-1.82 1.72-2.66 3.78z"/>
		<path id="Path 39" class="s0" d="m258.01 706.21c-1.18 2.36-1.78 4.52-1.33 4.8 0.45 0.29 2.05 1.64 3.56 3l2.74 2.49c3.01-6.98 3.69-9.34 3.45-9.75-0.24-0.41-1.74-1.67-3.34-2.79l-2.92-2.04zm11.62-3.09l-1.63 3.88c4.65 3.1 6.16 3.89 6.37 3.75 0.2-0.14 1.1-1.71 2-3.5l1.63-3.25-6.74-4.75zm-43.5-0.63l-2.04 4 6.41 6.54 4-8.12-6.34-6.42z"/>
		<path id="Path 40" class="s1" d="m243.83 701.05c2.88 2.97 3.19 3.76 2.25 5.7-0.59 1.24-1.06 2.81-1.04 3.5 0.02 0.69 0.91-0.33 1.96-2.25 1.05-1.92 1.95-4.17 1.99-5 0.03-0.83-0.28-1.18-0.71-0.79-0.43 0.39-2.36-0.49-4.28-1.95l-3.5-2.66z"/>
		<path id="Path 41" class="s0" d="m237.43 701.25l-1.61 3.25 8.04 8 3.17-8c-5.06-5.07-6.86-6.53-7.26-6.52-0.4 0.01-1.45 1.48-2.34 3.27zm11.19 3l-3.66 8.25 5.93 6 3.61-7.48c-4.65-4.7-5.55-6.04-5-6.02 0.55 0.02 2.01 1.05 3.25 2.27 1.23 1.23 2.37 2 2.53 1.73 0.15-0.27 1.09-2.3 2.09-4.5l1.81-4c-4.4-3.48-5.96-4.49-6.3-4.5-0.33 0-2.25 3.71-4.26 8.25zm-18.17-9c-1.56 3.18-1.53 3.31 1.23 6.03l2.82 2.79c3.62-7.55 3.62-7.58 1.32-9.85-1.28-1.25-2.65-2.26-3.05-2.25-0.4 0.02-1.45 1.49-2.32 3.28zm11.1-2.5l-1.74 3.75c5.96 4.97 7.96 6.09 8.28 5.71 0.32-0.39 1.22-2.24 2-4.11 1.39-3.34 1.35-3.45-2.09-6.26-1.93-1.58-3.77-2.86-4.1-2.85-0.33 0-1.39 1.7-2.35 3.76z"/>
		<path id="Path 42" class="s0" d="m231.67 683.09c-2.29 1.19-4.42 3.41-5.67 5.91-1.1 2.2-2 4.34-2 4.75-0.01 0.41 0.89 1.31 2 2 1.78 1.11 2.21 0.89 3.94-2 1.52-2.54 1.68-3.54 0.75-4.59-0.95-1.07-0.88-1.21 0.31-0.71 1.02 0.44 2.13-0.47 3.5-2.86 1.1-1.93 1.74-3.7 1.42-3.95-0.31-0.25-2.22 0.41-4.25 1.45zm6.83-2.32c-0.55 0.4-1.98 2.75-3.18 5.23l-2.18 4.5 5.86 4.5c3.59-7.22 3.61-7.61 2.1-9-0.9-0.83-1.18-1.16-0.62-0.73 0.56 0.42 1.58 0.76 2.27 0.75 0.69-0.01 1.91-1.26 2.71-2.77 0.8-1.51 1.48-2.41 1.5-2 0.02 0.41-0.63 2.1-1.46 3.75-1.48 2.97-1.46 3.03 2.25 5.48 2.06 1.37 3.98 2.51 4.25 2.54 0.28 0.03 1.18-1.34 2-3.05 1.46-3.02 1.41-3.18-1.5-5.61-1.65-1.38-2.32-2.18-1.5-1.78 0.83 0.4 2.18 1.34 3 2.08 1.28 1.16 1.61 1.1 2.26-0.4 0.42-0.97 0.49-1.99 0.16-2.26-0.32-0.28-2.31-0.5-4.42-0.5-2.11 0-4.2-0.35-4.66-0.78-0.46-0.43-2.41-0.76-4.34-0.73-1.92 0.02-3.95 0.37-4.5 0.78z"/>
		<path id="Path 43" class="s1" d="m469.35 672.62c-3.5 0.93-6.18 2.62-9.63 6.08-2.62 2.64-6.63 8.4-8.91 12.8-2.28 4.4-5.82 12.73-7.88 18.5-2.06 5.77-5.79 18.83-8.3 29-2.5 10.17-6.16 27.05-8.12 37.5-1.97 10.45-3.79 19.79-4.04 20.75-0.26 0.96-0.36 1.75-0.22 1.75 0.14 0 4.07 0.68 8.75 1.5 4.67 0.82 8.84 1.5 9.25 1.5 0.41 0 1.02-1.69 1.35-3.75 0.33-2.06 1.93-10.73 3.55-19.25 1.62-8.52 3.15-16.29 3.4-17.25 0.41-1.61 2.6-1.75 27.95-1.75h27.5c2.47 10.46 5.37 23.4 8.03 35.5 2.65 12.1 4.64 22.34 4.4 22.75-0.24 0.41-34.97 0.76-77.18 0.78-42.21 0.01-76.98-0.2-77.25-0.48-0.27-0.27 0.27-4 1.2-8.27 1.25-5.71 2.31-8.23 4-9.48 1.27-0.93 5.79-2.84 10.05-4.25 4.26-1.4 9.32-2.55 11.25-2.55 1.92 0 5.19-0.7 7.25-1.57 2.06-0.86 5.55-3.03 7.75-4.82 2.2-1.79 6.1-6.37 8.66-10.18 2.56-3.81 5.81-9.85 7.22-13.43 1.42-3.58 3.31-9.2 4.22-12.5 0.97-3.53 1.85-11.56 2.14-19.5 0.38-10.62 0.13-14.89-1.19-20-0.93-3.58-2.89-8.97-4.37-11.99-1.47-3.02-5.61-8.47-9.18-12.11-4.03-4.12-8.87-7.82-12.75-9.77-3.44-1.72-8.84-3.81-12-4.64-3.16-0.82-9.8-1.5-14.75-1.5-5.53 0-11.51 0.69-15.5 1.79-3.58 0.98-8.75 3.09-11.5 4.7-2.75 1.6-6.96 4.74-9.36 6.97-2.39 2.23-6.29 6.97-8.65 10.55-2.37 3.58-5.5 9.2-6.97 12.5-1.46 3.3-3.78 10.05-5.15 15-1.36 4.95-2.79 13.43-3.17 18.84l-0.7 9.84c4.02-1.05 7.25-0.5 10.75 0.76 4.49 1.61 6.42 2.99 8.78 6.31 1.66 2.34 3.06 3.8 3.1 3.25 0.04-0.55 0.43 0.12 0.87 1.5 0.44 1.37 0.85 3.29 0.9 4.25 0.06 0.96-0.35 1.75-0.9 1.75-0.55 0-1.41-1.91-1.91-4.25-0.63-2.9-2.06-5.29-4.5-7.5-1.98-1.79-5.28-3.7-7.34-4.25-2.06-0.55-5.33-0.68-7.25-0.29-1.95 0.4-5.12 2.28-7.16 4.25-2.47 2.39-3.88 4.83-4.37 7.54-0.4 2.24-0.25 5.54 0.35 7.5 0.59 1.92 1.92 4.62 2.96 6 1.04 1.37 3.54 3.29 5.56 4.25 2.01 0.96 5.35 1.76 7.41 1.78 2.29 0.02 5.11-0.88 7.25-2.3 1.92-1.27 4.54-4.1 5.81-6.27q2.32-3.98 1.64-1.46c-0.37 1.37-1.07 2.84-1.56 3.25-0.49 0.41 0.96 2.44 3.23 4.5 2.27 2.06 5.26 5.77 6.66 8.25l2.53 4.5c-3.54 13.17-5.18 18.46-5.94 20.25l-1.37 3.25h-56c-3.16-12.79-4.52-17.63-5.07-19-0.54-1.38-1.18-2.27-1.43-2-0.25 0.27 0.55 4.86 1.77 10.19 1.23 5.33 1.89 10.06 1.48 10.5-0.41 0.45-0.97 0.58-1.24 0.31-0.26-0.27-1.73-4.96-3.25-10.41-1.52-5.46-3.32-10.07-4.01-10.25-0.69-0.19-1.24 0.22-1.24 0.91 0.01 0.69 1.13 5.19 2.5 10 1.89 6.65 2.19 8.87 1.24 9.26-0.69 0.28-20.38 0.39-43.75 0.25l-42.5-0.26c-0.41-3.66 0.78-5.89 2.95-8.25l3.45-3.75 2.37 7c2.2-5.23 4.31-7.38 6.75-8.75 2.34-1.31 4.02-2.98 4-4-0.01-0.96-1.15-2.65-2.52-3.75-1.38-1.1-2.5-2.67-2.5-3.5 0-0.83 0.45-1.73 1-2 0.55-0.27 1.14 0.06 1.3 0.75 0.17 0.69 1.52-0.44 3-2.5 1.49-2.06 2.47-4.2 2.2-4.75-0.28-0.55-0.95-1-1.5-1-0.55 0-1.05 1.01-1.12 2.25-0.1 2.04-0.16 2.06-0.6 0.25-0.27-1.1-1.01-2.58-1.64-3.29-0.86-0.98-0.83-1.29 0.11-1.25 0.77 0.02 1.15-1.03 1-2.71-0.18-2-0.8-2.75-2.25-2.75q-2 0-2.25 2.25c-0.19 1.75-1.08 2.39-4 2.88-2.06 0.35-4.54 1.02-5.5 1.5-1.28 0.64-1.75 2.08-1.75 5.37 0 3.33 0.39 4.5 1.5 4.5 1.07 0 1.43-0.91 1.25-3.21-0.17-2.19 0.23-3.33 1.25-3.56 0.88-0.2 1.78 0.62 2.18 1.96 0.37 1.27 0.17 3.43-0.45 4.81-0.62 1.37-1.2 2.95-1.29 3.5-0.1 0.55-1.02 2.93-2.06 5.28-1.03 2.35-2.22 4.27-2.63 4.25-0.41-0.02-1.43 1.55-2.25 3.47-0.83 1.92-2.18 3.73-3 4q-1.5 0.5-1 3c0.27 1.37 0.05 2.5-0.5 2.5-0.55 0-1 1.35-1 3v3h15v6h-15v6l97.47 0.5c16.32 65.27 17.34 70.32 16.27 72.35-0.95 1.79-0.98 3.68-0.15 8 0.59 3.11 2.52 11.27 4.27 18.15 1.75 6.88 3.69 14.3 4.3 16.5 0.61 2.2 2.4 5.24 3.98 6.75 1.57 1.51 3.76 2.75 4.86 2.75 1.1 0 2.9-0.45 4-1 1.58-0.79 2-1.99 1.99-5.75 0-2.61-1.53-10.6-3.39-17.75-1.85-7.15-5.03-17.27-7.06-22.5-2.02-5.23-7.47-24.35-12.09-42.5-4.63-18.15-8.42-33.56-8.43-34.25-0.02-0.96 5.24-1.25 22.98-1.25 14.67 0 23 0.36 23 1 0 0.55-0.56 3.23-1.25 5.96-1.2 4.76-1.15 5.06 1.25 7.49 1.37 1.39 4.3 3.01 6.5 3.6 2.2 0.59 6.48 0.93 9.5 0.76l5.5-0.31c2.03-8.52 3.05-12.69 3.56-14.75l0.94-3.75 245.5-0.53c10.85-3.49 17.15-6.1 21-8.06 3.85-1.97 9.43-5.45 12.4-7.74 2.97-2.29 7.7-6.71 10.5-9.82 2.81-3.11 6.94-8.74 9.19-12.5 2.25-3.77 5.06-9.44 6.25-12.6 1.19-3.16 2.65-7.66 3.25-10 0.61-2.34 1.42-14.6 1.82-27.25 0.63-19.94 1.01-23.73 2.84-28.5 1.17-3.02 4.11-7.75 6.53-10.5 2.43-2.75 7.07-6.43 10.32-8.18 3.33-1.8 8.73-3.65 12.4-4.24 3.58-0.59 16.74-1.07 29.25-1.07l22.75-0.01c0-4.94-0.18-5.01-8.25-5.25-8.2-0.25-8.25-0.27-8.5-3l-0.25-2.75 16.5-0.5 0.5-6.5c-48.8-0.01-55.76 0.32-60.5 1.56-3.3 0.86-8.92 3.1-12.5 4.96-3.58 1.87-8.78 5.55-11.56 8.19-2.79 2.63-6.72 7.27-8.74 10.29-2.01 3.02-4.57 8.09-5.68 11.25-1.11 3.16-2.42 8.34-2.9 11.5-0.53 3.43-0.5 8.58 0.06 12.75 0.51 3.85 0.95 12.17 0.95 18.5 0.02 7.01-0.59 14.14-1.55 18.25-0.87 3.71-2.76 9.11-4.2 12-1.44 2.89-4.06 7.05-5.82 9.25-1.77 2.2-5.87 5.8-9.13 8.01-3.26 2.21-10.66 5.9-16.43 8.2-7.55 3.02-13.03 4.49-19.5 5.24-4.95 0.57-19.69 1.04-32.75 1.04-13.06 0.01-23.94-0.33-24.16-0.74-0.23-0.41-2.94-12.23-6.03-26.25-3.09-14.02-7.23-31.58-9.19-39-1.97-7.42-5.61-19.8-8.1-27.5-2.48-7.7-6.31-18.05-8.5-23-2.19-4.95-5.56-11.48-7.48-14.5-1.93-3.02-4.92-7-6.64-8.84-1.73-1.83-4.5-4.04-6.15-4.91-1.65-0.87-4.64-1.89-6.65-2.26-2.08-0.38-5.74-0.11-8.5 0.63z"/>
		<path id="Path 44" class="s0" d="m280.11 837.67c-0.07 0.46 3.23 14.33 7.32 30.83 4.1 16.5 7.7 31.69 8.01 33.75 0.36 2.42 1.09 3.75 2.06 3.75 0.82 0 1.5-0.45 1.5-1 0-0.55-2.3-9.89-5.11-20.75-2.82-10.86-6.58-25.83-8.37-33.25-1.8-7.42-3.72-13.65-4.27-13.83-0.56-0.19-1.07 0.04-1.14 0.5zm294.89-9.67v3h18v-6h-18zm-25 0v3h18v-6h-18zm-25 0v3h18v-6h-18zm-25 0v3h18v-6h-18zm-25 0v3h18v-6h-18zm-25 0v3h18v-6h-18zm-25 0v3h19v-6h-19zm-25 0v3h19v-6h-19zm-25 0v3h19v-6h-19zm-25 0v3h19v-6h-19zm-25 0v3h19v-6h-19zm-25 0v3h19v-6h-19zm-25 0v3h19v-6h-19zm-25 0v3h19v-6h-19zm-25 0v3h19v-6h-19zm-25 0v3h19v-6h-19zm409-5.96c-3.02 1.01-6.51 1.87-7.75 1.9-1.31 0.03-2.25 0.69-2.25 1.56 0 0.83 0.23 2.17 0.5 3 0.27 0.83 1.29 1.51 2.25 1.52 0.96 0.01 4.9-0.93 8.75-2.1 3.85-1.17 7.12-2.2 7.27-2.28 0.16-0.07 0.04-1.38-0.25-2.89-0.28-1.51-1.08-2.7-1.77-2.65-0.69 0.06-3.73 0.93-6.75 1.94zm21.45-11.62c-2.72 2.29-5.79 4.59-6.81 5.12-1.62 0.83-1.7 1.29-0.62 3.46 0.69 1.38 1.41 2.61 1.62 2.75 0.2 0.14 3.17-1.71 6.61-4.11 3.44-2.4 6.81-4.99 7.49-5.75 1-1.13 0.8-1.79-1.06-3.51l-2.29-2.12zm18.57-22.67c0.01 0.41-2.01 3.79-4.5 7.5-4.23 6.32-4.4 6.84-2.76 8.22 0.96 0.81 2.2 1.47 2.75 1.46 0.55 0 1.56-0.78 2.25-1.72 0.69-0.94 2.94-4.36 5-7.6 3.66-5.77 3.7-5.93 1.75-7.27-1.1-0.76-2.57-1.37-3.25-1.36-0.69 0.01-1.25 0.36-1.24 0.77zm-312.66-9.75c0.6 0.82 4.9 6 9.55 11.5 4.66 5.5 8.49 10.12 8.53 10.27 0.04 0.14 7.04-1.47 15.57-3.59l15.5-3.86c-13.18-4.11-24.48-7.67-33.63-10.56-11.01-3.49-16.25-4.76-15.52-3.76zm319.12-11.25c-0.3 1.51-1.18 5.22-1.95 8.25-0.78 3.02-1.1 5.79-0.72 6.14 0.38 0.35 1.71 0.91 2.95 1.25 2.01 0.55 2.39 0.06 3.68-4.64 0.79-2.89 1.69-7.16 2-9.5 0.56-4.18 0.51-4.25-2.42-4.25-2.45 0-3.08 0.49-3.54 2.75zm0.53-18.25v9.5h6v-19h-6zm3.35-31.75c-0.85 2.06-1.98 6.22-2.51 9.25-0.74 4.27-0.66 5.66 0.35 6.23 0.72 0.41 1.98 0.75 2.81 0.77 1.03 0.02 2.01-2.09 3.15-6.74 0.91-3.72 1.95-7.66 2.32-8.76 0.51-1.53 0.05-2.3-1.95-3.25-2.51-1.2-2.69-1.09-4.17 2.5zm11.65-17.67c-3.39 3.34-6.13 6.72-6.08 7.5 0.04 0.78 0.98 1.87 2.08 2.42 1.71 0.85 2.87 0.1 8.03-5.25 5.78-5.99 5.96-6.34 4.5-8.5-0.85-1.24-1.72-2.25-1.95-2.25-0.24 0-3.2 2.74-6.58 6.08zm-199.87-5.33c-1.09 1.51-3.54 6.12-5.45 10.25-1.91 4.12-5.05 12.45-6.99 18.5-1.94 6.05-3.79 12.69-4.11 14.75l-0.58 3.75c36 0 44-0.36 44-1 0-0.55-1.3-4.94-2.89-9.75-1.58-4.81-4.51-12.69-6.5-17.5-1.99-4.81-4.8-10.66-6.24-13-1.44-2.34-3.58-5.28-4.75-6.53-1.17-1.25-2.66-2.26-3.32-2.25-0.65 0.02-2.08 1.27-3.17 2.78zm238.87-5.75v3h18v-6h-18zm-19.5-0.88c-3.3 1.14-6.13 2.13-6.28 2.22-0.15 0.09 0.3 1.42 1 2.95 0.86 1.89 1.76 2.59 2.78 2.15 0.82-0.35 4.53-1.38 8.24-2.29 6.28-1.54 6.74-1.84 6.75-4.4 0-2.45-0.36-2.75-3.24-2.72-1.79 0.02-5.95 0.96-9.25 2.09z"/>
		<path id="Path 45" class="s1" d="m234 672.61c-3.03 0.82-7.3 2.54-9.5 3.84-2.2 1.29-6.03 4.12-8.5 6.28-2.55 2.24-6.1 6.93-8.19 10.86-2.03 3.8-4.48 10.06-5.43 13.91-1.24 4.94-1.74 10.97-1.73 20.5 0.01 10.5 0.51 15.5 2.22 22.5 1.22 4.95 4.37 13.5 7.01 19 2.64 5.5 6.59 12.25 8.76 15 2.18 2.75 6.86 6.94 10.41 9.31 3.55 2.37 9.15 5.13 12.45 6.14 3.3 1.01 8.47 1.94 11.5 2.06 3.02 0.13 7.07 0.19 9 0.14 1.93-0.05 3.27-0.31 3-0.57-0.27-0.26-5.11-1.17-10.75-2.03-5.64-0.85-12.16-2.3-14.5-3.22-2.34-0.91-6.68-3.27-9.64-5.25-2.97-1.97-7.41-6.28-9.86-9.58-2.46-3.3-5.27-7.58-6.25-9.5-0.98-1.92-2.96-6.42-4.4-10-1.44-3.58-3.39-9.88-4.34-14-1.19-5.15-1.71-11.57-1.67-20.5 0.04-9.16 0.58-14.92 1.82-19.5 0.98-3.58 2.97-8.94 4.43-11.92 1.46-2.99 4.69-7.45 7.16-9.92 2.49-2.48 7.63-5.97 11.5-7.81 3.85-1.82 9.25-3.6 12-3.96 2.81-0.35 8.06-0.07 12 0.66 3.85 0.72 10.15 2.9 14 4.86 3.85 1.95 9.64 6.03 12.87 9.07 3.22 3.04 7.93 8.67 10.47 12.52 2.53 3.85 5.97 10.83 7.63 15.5 2.88 8.07 3.03 9.25 2.96 23.5-0.06 13.38-0.36 15.97-2.81 24-1.51 4.95-3.93 11.02-5.39 13.5-1.45 2.48-4.24 6.23-6.19 8.35-1.95 2.11-5.45 5.04-7.79 6.5-2.33 1.46-4.25 2.99-4.25 3.4 0 0.41 0.68 0.75 1.5 0.75 0.82 0 3.41-1.28 5.75-2.85 2.34-1.56 5.98-4.82 8.09-7.25 2.11-2.42 4.88-6.42 6.15-8.9 1.27-2.48 3.06-7.2 3.99-10.5 0.92-3.3 2.31-8.48 3.08-11.5 0.78-3.02 1.42-10.23 1.44-16 0.01-7.42-0.58-12.85-2.04-18.5-1.13-4.4-3.83-11.38-5.99-15.5-2.17-4.13-6.08-10.07-8.7-13.2-2.62-3.14-7.02-7.47-9.77-9.62-2.75-2.16-7.25-5.06-10-6.45-2.75-1.39-7.7-3.24-11-4.11-3.3-0.87-8.47-1.56-11.5-1.54-3.03 0.03-7.97 0.72-11 1.53z"/>
		<path id="Path 46" class="s1" d="m1449 671.2c-0.77 0.66-1.32 2.35-1.22 3.75 0.1 1.4 0.76 3.12 1.45 3.82 0.7 0.69 2.42 1.26 3.82 1.25 1.4-0.01 3.1-0.58 3.77-1.27 0.67-0.69 1.21-2.38 1.21-3.75 0-1.38-0.57-3.07-1.26-3.77-0.7-0.69-2.42-1.26-3.82-1.25-1.4 0.01-3.18 0.56-3.95 1.22z"/>
		<path id="Path 47" class="s1" d="m1317.5 650.4c-2.63 2.71-3.33 4.28-3.43 7.75-0.1 3.15 0.49 5.15 2.15 7.28 1.25 1.61 3.74 3.52 5.53 4.25 2.05 0.83 4.43 1.04 6.46 0.57 1.76-0.41 4.35-1.9 5.75-3.29 1.39-1.4 2.88-3.99 3.29-5.75 0.47-2.03 0.26-4.41-0.57-6.46-0.73-1.79-2.64-4.28-4.25-5.53-2.05-1.61-4.23-2.28-7.28-2.25-3.61 0.02-4.91 0.61-7.65 3.43z"/>
		<path id="Path 48" class="s1" d="m552.91 640.58c-1.23 1.43-1.16 1.82 0.59 3.03 1.1 0.77 2.37 1.06 2.81 0.64 0.45-0.41 0.68-1.61 0.5-2.67-0.17-1.05-0.8-2.08-1.4-2.28-0.6-0.2-1.73 0.37-2.5 1.28z"/>
		<path id="Path 49" class="s1" d="m1127.04 628.99c-0.57 1.11-0.82 2.46-0.54 3.01 0.28 0.55 1.74 0.99 3.25 0.97 1.96-0.02 3.11 0.7 4 2.5 0.69 1.39 1.25 4.55 1.25 7.03 0 4.13-0.2 4.5-2.5 4.5-1.37 0-2.72 0.45-3 1-0.28 0.55-1.96 0.98-3.75 0.97-1.79-0.02-4.49 0.88-6 2-1.51 1.11-3.54 1.82-4.5 1.56-1.12-0.3-2.02-1.93-2.5-4.5-0.41-2.22-1.99-5.42-3.5-7.12-2.11-2.37-3.43-3.01-5.65-2.75-1.62 0.19-3.76 1.45-4.84 2.84-1.23 1.59-1.72 3.32-1.35 4.75 0.32 1.24 1.94 2.92 3.59 3.75 1.65 0.83 3.22 2.4 3.5 3.5 0.28 1.1-0.06 2.68-0.75 3.51-0.69 0.84-2.59 1.62-4.22 1.75-2.02 0.16-3.61 1.2-5 3.24-1.12 1.65-2.81 4.12-3.77 5.5-1.72 2.47-1.76 2.48-3.22 0.5-0.81-1.1-1.48-2.9-1.49-4-0.01-1.1 1.1-3.24 2.47-4.75 1.36-1.51 2.26-3.2 1.98-3.75-0.28-0.55-1.4-1-2.5-1-1.36 0-2.67 1.37-4.1 4.25-1.31 2.65-2.13 6.32-2.18 9.75-0.04 3.02 0.57 6.98 1.35 8.79 1.08 2.49 2.04 3.28 3.93 3.25 1.38-0.03 4.08-0.99 6-2.14 1.92-1.15 4.24-3.06 5.15-4.24l1.65-2.16c3.77 6.21 4.1 7.9 3.61 11-0.35 2.2-0.81 4.34-1.03 4.75-0.21 0.41-7.69 0.75-16.63 0.75-8.94-0.01-19.74 0.33-24.01 0.75l-7.76 0.75 0.02 17.5h41c0.76 26.74 1.21 51.49 1.49 72.25l0.51 37.75c5.04 0.01 9.37-0.33 12.88-0.74l6.37-0.76c-0.98-42.63-1.48-67.04-1.75-81.75l-0.5-26.75h45l-0.5-18.5-35-0.51c-2.23-8.96-2.1-10.27-0.03-16.49 1.28-3.85 2.6-8.24 2.93-9.75 0.48-2.21 1.43-2.97 4.85-3.88 2.58-0.69 6.02-2.81 8.75-5.39l4.5-4.26c-2.65-6.76-5.01-10.86-6.96-13.47-1.95-2.61-4.87-5.43-6.5-6.26-2.76-1.4-3.02-1.37-4 0.5z"/>
		<path id="Path 50" class="s1" d="m1303 628.03c-9.63 1.54-17.58 2.85-17.68 2.89-0.1 0.04-0.88 0.75-1.75 1.58-0.86 0.83-1.56 2.74-1.55 4.25 0.01 1.51 2.04 6.46 4.5 11 2.46 4.54 4.29 8.59 4.05 9-0.23 0.41-7.87 4.58-16.98 9.25-9.1 4.67-16.56 8.84-16.57 9.25-0.01 0.41 1.78 1.2 3.98 1.75 3.08 0.77 5.33 0.62 9.75-0.63 5.31-1.5 6.15-1.5 11 0 2.89 0.9 6.6 1.63 8.25 1.63 1.65 0 5-0.56 7.44-1.25 3.82-1.07 5.2-1 9.75 0.49 2.92 0.95 6.77 1.74 8.56 1.75 1.79 0 3.25-0.21 3.25-0.49 0-0.27-4.05-8.37-9-18-4.95-9.62-8.89-17.71-8.75-17.97 0.14-0.25 5.65-1.24 12.25-2.2 9.83-1.42 12.41-2.15 14.25-4.03 1.24-1.27 2.25-3.2 2.25-4.3 0-1.1-1.13-3.12-2.5-4.5-1.38-1.37-3.51-2.45-4.75-2.39-1.24 0.06-10.13 1.37-19.75 2.92z"/>
		<path id="Path 51" class="s1" d="m699.93 614.5c0 0.55 1.93 3.2 4.29 5.88 2.35 2.68 5.18 5.3 6.28 5.81 1.1 0.5 0.68-0.12-0.92-1.38-1.61-1.27-4.44-4.33-6.29-6.81-1.84-2.48-3.35-4.05-3.36-3.5z"/>
		<path id="Path 52" class="s1" d="m1447.94 607.93c-0.62 1.07-1.08 2.64-1.03 3.5 0.05 0.87-0.59 1.8-1.41 2.07-0.83 0.28-1.84 0.49-2.25 0.47-0.41-0.02 0.15-0.7 1.25-1.52 1.1-0.82 1.44-1.48 0.75-1.47-0.69 0.01-1.11-0.65-0.95-1.48 0.17-0.82-0.07-1.5-0.53-1.5-0.46 0-2.41 1.58-4.34 3.5-1.92 1.93-4.16 3.5-4.96 3.5-0.81 0-1.92 0.9-2.47 2-0.55 1.1-0.74 2.34-0.41 2.75 0.32 0.41 2.46 0.81 4.75 0.88 2.29 0.07 4.72 0.19 5.41 0.25 0.69 0.07 1.25 0.91 1.26 1.87 0 0.96 0.69 3.1 1.53 4.75 0.84 1.65 1.51 3.56 1.49 4.25-0.02 0.69 0.64 1.93 1.47 2.75 1.07 1.07 1.29 2.38 0.75 4.62-0.41 1.71-1.31 3.51-2 4-0.74 0.52-0.94 1.56-0.5 2.55 0.41 0.92 2.15 2.61 3.87 3.75 1.71 1.14 4.75 4.22 6.75 6.83 1.99 2.61 3.63 5.88 3.63 7.25 0 1.38 0.22 2.5 0.5 2.5 0.28 0 1.4-0.45 2.5-1 1.49-0.75 2.19-0.64 2.75 0.43 0.41 0.78 2.66 2.81 5 4.5 2.34 1.69 4.56 3.86 4.94 4.82 0.39 0.96 1.29 2.31 2 3 0.72 0.69 1.31 1.7 1.31 2.25 0 0.63-6.67 1-18 1-12.5 0-20.37 0.48-25.75 1.59-4.26 0.87-10.68 3.1-14.25 4.96-3.58 1.86-8.64 5.43-11.25 7.92-2.61 2.49-6.31 6.89-8.22 9.78-1.91 2.89-4.45 7.95-5.64 11.25-1.9 5.28-2.25 8.96-2.85 30.5-0.61 21.8-0.93 25.22-2.95 31-1.25 3.58-4.14 10.06-6.43 14.41q-4.16 7.92-9.71 13c-3.05 2.8-8 6.3-11 7.77-3 1.48-8.38 3.5-11.95 4.49-5.11 1.42-10.23 1.81-24 1.82-9.63 0-109.64-0.1-222.25-0.24l-204.75-0.25c3.95-7.39 4.01-9.39 4.03-75l0.01-67.5c29.81-17.99 47.57-28.68 58.71-35.36l20.25-12.14-4.5-6.3c3.17-2.48 5.87-4.65 8.04-6.42l3.96-3.21c-3.1-3.2-4.23-4.12-4.5-4.11-0.28 0.02-2.75 1.84-5.49 4.06-4.85 3.91-5.03 3.97-6.25 2-1.24-1.99-1.36-1.97-8.01 1.38-3.71 1.87-13.95 5.74-22.75 8.61-8.8 2.87-22.45 7.53-30.33 10.36-10.15 3.63-14.52 4.79-15 3.96-0.51-0.89-6.74-0.84-26.17 0.21-14.03 0.76-27.75 1.65-30.5 1.97-2.75 0.33-8.15 1.25-12 2.04-3.85 0.8-9.59 1.9-12.75 2.45l-5.75 1v44c7.75 0 11.35 0.68 13 1.5 1.65 0.83 3.56 2.51 4.25 3.75 0.93 1.68 1.38 14.82 1.75 51.77l0.5 49.53c5.15 10.6 8.05 14.5 11.14 17.23l4.86 4.29-36.5-0.07v19c525.49-0.51 535.74-0.59 542-2.38 3.57-1.02 9.87-3.41 14-5.31 4.12-1.9 10.2-5.39 13.5-7.76 3.3-2.37 8.29-6.73 11.09-9.68 2.8-2.95 6.81-8.07 8.91-11.37 2.11-3.3 4.7-8.02 5.77-10.5 1.07-2.47 2.85-7.42 3.94-11 1.66-5.39 2.12-10.69 2.68-31 0.68-24.2 0.72-24.57 3.47-30 1.54-3.02 3.77-6.56 4.96-7.86 1.2-1.29 3.98-3.6 6.18-5.13 2.2-1.53 6.47-3.51 9.5-4.4 4.39-1.3 10.17-1.63 28.75-1.62l23.25 0.01v-19c-5.33-0.01-5.48-0.25-5.25-4.01 0.23-3.65-0.02-4.1-3-5.33-1.96-0.81-4.44-3.21-6.25-6.03-1.65-2.58-3.79-4.9-4.75-5.16-0.96-0.26-2.4-1.71-3.2-3.22-0.79-1.51-1.94-3.87-2.55-5.25-0.61-1.37-1.33-3.4-1.6-4.5-0.34-1.4 0.2-2.3 1.81-3 1.34-0.58 2.42-2.04 2.6-3.5 0.17-1.41-0.73-4.02-2.07-6-1.31-1.92-2.64-5.3-2.95-7.5-0.39-2.7-0.1-4.63 0.88-5.95 0.94-1.26 4.53-2.71 10.14-4.09 8.44-2.09 8.74-2.09 10.44-0.3 0.96 1.01 2.2 1.84 2.75 1.84 0.55 0 1-0.45 1-1 0-0.55-0.9-1.9-2-3-1.79-1.79-3.01-1.96-11.75-1.58-5.36 0.24-11.22 0.12-13.02-0.25-2.39-0.49-3.26-1.2-3.23-2.67 0.02-1.1-0.54-2.57-1.23-3.27-0.7-0.69-2.27-1.26-3.49-1.25-1.22 0.01-2.73 0.89-3.34 1.95z"/>
		<path id="Path 53" class="s1" d="m551.5 599.07c-1.65 1.05-4.04 1.92-5.32 1.92-1.28 0.01-3.08 0.73-4 1.6-0.97 0.92-2.9 1.46-4.55 1.27-1.88-0.21-3.61 0.39-5 1.74-1.17 1.13-4.61 2.62-7.63 3.3-3.02 0.68-6.74 2.11-8.25 3.17-1.51 1.06-3.09 1.94-3.5 1.96-0.41 0.02-2.01 2.16-3.55 4.75l-2.8 4.72c-6.67-6.73-7.93-8.87-7.92-10.75 0.02-2.59-0.23-2.75-4.48-2.75-2.48 0-5.63 0.45-7 1-1.38 0.55-2.5 1.67-2.5 2.5 0 0.82 0.68 1.5 1.5 1.5 0.82 0 2.82 0.79 4.43 1.75 1.7 1.01 3.18 2.91 3.5 4.5 0.33 1.59 3.52 5.7 7.57 9.75 3.85 3.85 7.79 7 8.75 6.99 1.46-0.01 2.05 1.9 3.58 11.75 1.01 6.47 1.69 14.23 1.52 17.26-0.17 3.02 0.01 6.06 0.42 6.75 0.55 0.94-0.75 1.25-5.27 1.25h-6v19c89.28 0.03 91.71 0.12 95.75 2.01 2.92 1.37 5 3.32 6.65 6.24 1.32 2.34 2.7 5.6 3.07 7.25 0.36 1.65 0.18 4.91-0.41 7.25-0.58 2.34-2.3 5.68-3.81 7.42-1.51 1.74-4.21 3.76-6 4.5-2.23 0.91-8.13 1.33-18.75 1.33h-15.5c0 18.67 0.08 19 2.25 19.05 1.67 0.04 7.64 6.33 23.25 24.53 11.55 13.46 22.13 25.87 23.5 27.59l2.5 3.11c8.27-4.48 11.75-6.91 13.07-8.28l2.39-2.5-37.76-44c8.37-1.94 12.6-3.4 14.8-4.5 2.2-1.1 6.02-4.03 8.5-6.5 2.48-2.48 5.62-6.75 7-9.5 1.37-2.75 2.88-7.59 3.33-10.75 0.46-3.16 0.52-8.23 0.14-11.25-0.39-3.03-2-8.14-3.58-11.37-1.59-3.23-5.02-7.84-7.64-10.25-2.61-2.41-7.34-5.62-10.5-7.13l-5.75-2.75-79.31-1c0.37-10.85 0.99-15.8 1.62-18 0.63-2.2 1.15-7.94 1.17-12.75 0.01-4.86-0.42-8.97-0.98-9.25-0.55-0.28-1-0.95-1-1.5 0-0.55 0.67-1 1.5-1 0.93 0 1.5 0.94 1.5 2.5 0 1.69 1.22 3.48 3.75 5.51 2.06 1.66 5.67 3.79 8.01 4.75 2.34 0.96 4.47 2.53 4.75 3.49 0.27 0.96 1.05 1.76 1.74 1.78 0.69 0.02 2.05-0.77 3.02-1.75 1.68-1.68 1.68-1.87 0.07-3.28-0.94-0.83-2.92-2.18-4.4-3-1.49-0.83-4.54-2.85-6.8-4.5-3.6-2.63-4.03-3.37-3.54-6 0.3-1.65 0.74-3.79 0.97-4.75 0.24-0.96 1.44-2.14 2.68-2.63 1.24-0.48 3.34-3.06 4.66-5.75 1.33-2.68 3.13-5.81 4-6.97 0.88-1.15 3.5-3.74 5.84-5.75 2.34-2.01 5.15-3.65 6.25-3.65 1.1 0 3.69 0.81 5.75 1.8 3.4 1.64 3.91 1.66 5.47 0.25 0.95-0.85 1.74-1.89 1.75-2.3 0.02-0.41-1.21-0.75-2.72-0.74-1.51 0-4.55-0.9-6.75-2.01-2.2-1.11-4.45-1.98-5-1.94-0.55 0.05-2.35 0.95-4 2.01z"/>
		<path id="Path 54" class="s1" d="m998.08 598.1c-7.01 5.84-7.06 5.92-5.34 8.15 0.96 1.24 1.85 2.47 1.99 2.75 0.14 0.27 3.07-1.94 6.51-4.93 3.44-2.98 6.71-5.76 7.26-6.18 0.62-0.46 0.18-1.69-1.17-3.22l-2.16-2.46z"/>
		<path id="Path 55" class="s1" d="m732.39 592.79c-0.61 0.41-1.64 2.09-2.28 3.73-0.82 2.09-0.85 3.13-0.1 3.48 0.59 0.28 0.81 1.62 0.49 3-0.55 2.34-0.97 2.49-6.3 2.31-3.13-0.1-6.6-0.33-7.7-0.5-1.1-0.17-2.23-0.6-2.5-0.95-0.27-0.36-5.34-1.82-11.25-3.25-5.91-1.44-11.2-2.61-11.75-2.61-0.55 0-1.46 1.24-2.01 2.75-0.56 1.51-0.9 2.83-0.75 2.92 0.14 0.1 5.43 1.38 11.76 2.84 8.2 1.91 11.86 3.22 12.75 4.58 0.69 1.06 2.25 1.84 3.5 1.75 1.24-0.08 4.84-0.08 8 0l5.75 0.16c-0.98 8.22-3.04 14.28-5.38 19.19-2.26 4.77-4.57 8.7-5.12 8.72-0.55 0.03-1.56 1.79-2.24 3.93-0.69 2.14-1.25 5.53-1.25 7.53-0.01 1.99-0.53 6.89-1.16 10.88-0.63 3.99-1.86 8.05-2.75 9.02-1.26 1.4-1.34 2.04-0.38 3 0.96 0.97 2.23 0.77 6-0.97 3.91-1.79 4.73-2.61 4.49-4.5-0.15-1.26-0.31-2.97-0.35-3.8-0.04-0.83 0.74-3.75 1.73-6.5l1.8-5 17.11 16.3c-3.81 4.06-3.84 4.26-2.25 4.23 0.96-0.02 2.99-0.66 4.5-1.43 1.51-0.76 3.56-2.23 4.54-3.25 1.73-1.78 1.69-1.94-1-4.35-1.53-1.38-5.38-5.65-8.55-9.5-4.25-5.17-5.75-7.79-5.72-10 0.03-1.8 1.67-5.41 4.1-9 3.25-4.83 3.93-6.59 3.45-9-0.38-1.89 0.36-6.15 1.97-11.5 1.41-4.67 2.43-9.62 2.26-11-0.17-1.44-1.26-2.92-2.55-3.5-1.48-0.66-2.25-1.86-2.25-3.5 0.01-1.37-0.66-3.51-1.49-4.75-0.83-1.24-2.52-2.24-3.76-2.23-1.24 0-2.75 0.35-3.36 0.77z"/>
		<path id="Path 56" class="s1" d="m133.84 584.32c-2.57 0.65-5.16 1.63-5.76 2.18-0.59 0.55-1.93 5.05-2.96 10-1.04 4.95-2.22 12.37-2.63 16.5-0.45 4.52-0.35 8.29 0.24 9.5 0.54 1.1 3.08 2.9 5.63 4l4.63 2 0.04 18-9.53-9.49-13 12.96 22.44 22.53 0.06 115.5c-7.36 1.44-13.55 2.55-18.5 3.39-4.95 0.85-13.72 2-19.5 2.58-5.78 0.57-10.95 1.05-11.5 1.05-0.6 0-0.88 2.87-0.69 7.24 0.16 3.98 0.5 8.25 0.75 9.49 0.41 2.1 0.81 2.21 6.19 1.68 3.16-0.31 12.5-1.47 20.75-2.58 8.25-1.1 19.95-3.26 26-4.8 6.05-1.53 14.6-4.22 19-5.98 4.4-1.76 11.15-5.14 15-7.52 3.85-2.38 9.65-7.19 12.89-10.69 3.23-3.5 6.67-7.94 7.64-9.86 0.96-1.93 2.48-5.98 3.37-9 0.9-3.05 1.62-9.06 1.62-13.5 0-4.82-0.82-11.18-2.05-16-1.13-4.4-3.86-11.83-6.07-16.5-2.2-4.68-7.32-13.45-11.37-19.5-4.04-6.05-11.27-15.73-16.06-21.5l-8.7-10.5c0.82-12.4 0.76-18.37 0.39-21.26-0.59-4.74-0.9-5.26-3.11-5.25-1.94 0.01-2.2-0.25-1.23-1.24 0.67-0.69 1.21-2.94 1.2-5-0.02-3.21 0.34-3.82 2.48-4.25 1.48-0.3 3.11-1.72 4-3.5 0.82-1.65 1.5-3.68 1.5-4.5 0-0.83-0.68-1.73-1.5-2-0.82-0.28-1.5-0.95-1.5-1.5 0-0.55 1.01-0.77 2.25-0.48 2.14 0.48 2.16 0.42 0.53-1.25-0.95-0.98-1.74-2.11-1.75-2.52-0.02-0.41 0.98-0.51 2.22-0.22l2.25 0.53c-3.56-2.76-4.57-3.9-4.55-4.31 0.03-0.41 1.06-0.5 2.3-0.2 2.03 0.5 2.08 0.42 0.54-0.75-0.94-0.71-1.73-1.86-1.75-2.55-0.02-0.72 0.7-1.04 1.71-0.75 1.64 0.47 1.64 0.43 0.04-0.75-0.94-0.69-1.73-1.59-1.75-2-0.02-0.41 0.75-0.73 1.71-0.71 1.57 0.04 1.6-0.13 0.25-1.66-1.13-1.29-1.19-1.79-0.25-2.04 0.69-0.19 1.27-1.35 1.29-2.59 0.02-1.44-1.78-3.97-5-7-4.73-4.46-5.36-4.75-10.29-4.68-2.89 0.03-7.35 0.6-9.91 1.25z"/>
		<path id="Path 57" class="s0" d="m152 738.5c0 40.06 0.1 42.46 1.75 41.85 0.96-0.36 4.68-2.56 8.25-4.88 3.57-2.33 7.82-5.97 9.44-8.1 1.62-2.13 3.6-5.45 4.39-7.37 0.8-1.92 1.45-6.65 1.45-10.5 0-4.57-0.79-9.43-2.28-14-1.25-3.85-3.51-9.48-5.02-12.5-1.51-3.02-5.94-10.34-9.86-16.25-3.92-5.91-7.34-10.75-7.62-10.75-0.28 0-0.5 19.13-0.5 42.5zm-16.5-108.83c-0.46 0.36-0.69 2.73-0.52 5.25l0.32 4.58c0.93-6.98 1.54-8.89 1.95-8.75 0.41 0.14 1.2 0.25 1.75 0.25 0.55 0 1 1.8 1 4 0 2.2 0.34 4 0.75 3.99 0.41 0 0.58-1.69 0.38-3.75-0.2-2.06-0.88-4.32-1.5-5.03-0.62-0.72-1.62-1.28-2.21-1.25-0.6 0.02-1.46 0.34-1.92 0.71zm-1-18c-0.46 0.36-0.76 0.93-0.66 1.25 0.09 0.32 1.85 0.4 3.91 0.18 2.66-0.28 4.7 0.23 7 1.75 1.79 1.18 3.25 1.7 3.25 1.15 0-0.55-1.35-1.9-3-3-1.65-1.1-4.5-2-6.33-2-1.84 0-3.71 0.3-4.17 0.67zm0-4c-0.46 0.36-0.76 0.93-0.66 1.25 0.09 0.32 1.96 0.42 4.15 0.22 2.86-0.27 4.82 0.22 6.99 1.75 1.66 1.16 3.26 2 3.56 1.86 0.3-0.14-0.83-1.49-2.5-3-2.2-1.99-4.1-2.75-6.87-2.75-2.11 0-4.21 0.3-4.67 0.67zm0.5-3.67c0 0.55 1.91 0.98 4.25 0.97 2.75-0.03 5.22 0.68 7 2 1.51 1.11 2.99 1.92 3.29 1.78 0.3-0.14-0.83-1.49-2.5-3-2.37-2.14-4.03-2.75-7.54-2.75-2.47 0-4.5 0.45-4.5 1zm0-4c0 0.55 2.03 1 4.5 1 2.83 0 5.61 0.74 7.5 2 1.65 1.1 3 1.55 3 1 0-0.55-1.24-1.92-2.75-3.03-1.88-1.4-4.25-2.03-7.5-2-2.61 0.01-4.75 0.48-4.75 1.03zm-8.45 0c-0.32 0.58 0.92 1 2.95 1 1.93 0 3.5-0.45 3.5-1 0-0.55-1.33-1-2.95-1-1.62 0-3.2 0.45-3.5 1zm8.95-4.33c-0.46 0.36-0.76 1.04-0.67 1.5 0.1 0.45 2.14 0.55 4.54 0.21 3.5-0.5 5.01-0.2 7.5 1.5 1.72 1.17 3.37 2.01 3.67 1.87 0.3-0.14-0.83-1.49-2.5-3-2.33-2.11-4.05-2.75-7.37-2.75-2.39 0-4.71 0.3-5.17 0.67zm1.55-4.01c-0.8 0.28-1.36 0.92-1.25 1.42 0.11 0.51 1.89 0.62 3.95 0.26 2.89-0.5 4.67-0.14 7.75 1.6l4 2.26c-5.59-5.33-7.41-6.18-9.75-6.12-1.79 0.04-3.9 0.3-4.7 0.58zm0.45-6.55c-2.75 0.48-6.01 1.55-7.25 2.38-1.24 0.83-2.14 1.72-2 1.98 0.14 0.26 1.82 0.04 3.75-0.48 1.93-0.53 6.43-1.26 10-1.63 5.8-0.61 6.88-0.43 10 1.67l3.5 2.35c-3.1-3.56-5.24-5.22-6.75-5.98-1.51-0.77-3.54-1.35-4.5-1.28-0.96 0.06-4 0.51-6.75 0.99z"/>
		<path id="Path 58" class="s1" d="m1017.23 582.26l-7.27 6.24 4.54 4.41c10.49-8.84 13.55-11.64 13.56-11.91 0.01-0.27-0.78-1.51-1.77-2.74l-1.79-2.24z"/>
		<path id="Path 59" class="s1" d="m841.5 552.57c-1.65 0.86-4.13 2.61-5.5 3.91-1.38 1.29-3.71 4.52-5.19 7.18-1.48 2.66-3.45 7.76-4.38 11.34-1 3.85-1.67 10.18-1.65 15.5 0.02 5.79 0.62 10.61 1.68 13.5 0.91 2.47 2.86 6.05 4.35 7.94 1.48 1.89 4.49 4.25 6.69 5.23 2.54 1.13 6.47 1.79 10.75 1.81 3.88 0.01 8.34-0.64 10.5-1.54 2.06-0.85 4.81-2.54 6.1-3.75 1.29-1.2 3.16-3.77 4.15-5.69 0.99-1.93 2.34-6.43 3-10 0.68-3.73 0.91-9.06 0.53-12.5-0.36-3.3-1.15-8.03-1.74-10.5-0.6-2.48-2.19-6.75-3.54-9.5-1.36-2.75-3.88-6.5-5.61-8.34-1.72-1.83-4.38-3.97-5.89-4.75-1.51-0.77-4.66-1.41-7-1.4-2.34 0-5.6 0.7-7.25 1.56z"/>
		<path id="Path 60" class="s0" d="m849 554.7c-0.83 0.3-2.78 1.73-4.34 3.17-1.56 1.45-3.7 4.32-4.75 6.38-1.05 2.06-2.58 6.56-3.4 10-0.81 3.44-1.49 9.62-1.5 13.75-0.02 4.12 0.65 9.86 1.48 12.75 0.87 3.04 2.95 6.83 4.93 9 3.27 3.58 3.72 3.75 9.75 3.75 4.81 0 7.05-0.5 9.33-2.1 1.65-1.16 3.85-3.86 4.89-6 1.03-2.15 2.35-6.82 2.92-10.4 0.73-4.64 0.7-8.93-0.13-15-0.8-5.9-2.15-10.49-4.42-15-2.14-4.27-4.46-7.28-6.76-8.78-1.92-1.25-4.17-2.23-5-2.17-0.83 0.06-2.17 0.35-3 0.65z"/>
		<path id="Path 61" class="s1" d="m957.25 533.74l-62.25 0.26v89h6v-83h149v102h-74v6h80v-115c-28.29 0.38-64.51 0.6-98.75 0.74z"/>
	</g>
</svg>